<svg id="svg" version="1.1" xmlns="http://www.w3.org/2000/svg" xmlns:xlink="http://www.w3.org/1999/xlink" width="400" height="314.2857142857143" viewBox="0, 0, 400,314.2857142857143"><g id="svgg"><path id="path0" d="M162.533 3.610 C 162.450 3.693,161.012 3.778,159.337 3.800 C 157.613 3.822,156.369 3.962,156.468 4.123 C 156.565 4.279,156.307 4.254,155.896 4.067 C 155.031 3.673,149.814 4.143,148.754 4.711 C 147.330 5.473,145.993 10.650,147.203 10.716 C 147.444 10.729,147.925 10.799,148.270 10.870 C 151.691 11.579,174.648 11.620,175.350 10.919 C 175.640 10.629,175.666 7.682,175.381 7.311 C 175.189 7.060,175.192 6.777,175.390 6.525 C 175.891 5.891,175.753 5.064,175.183 5.278 C 174.771 5.432,174.753 5.381,175.076 4.983 C 175.592 4.347,175.250 4.053,174.277 4.297 C 173.729 4.434,173.559 4.385,173.714 4.134 C 173.991 3.685,175.002 3.669,175.807 4.099 C 176.193 4.306,176.415 4.312,176.415 4.116 C 176.415 3.947,177.087 3.755,177.909 3.690 C 178.730 3.625,175.641 3.547,171.043 3.516 C 166.445 3.485,162.616 3.527,162.533 3.610 M210.849 3.768 C 208.082 3.897,205.303 4.022,204.675 4.045 L 203.532 4.088 203.532 5.660 C 203.532 7.081,204.053 7.999,204.113 6.682 C 204.131 6.277,204.184 6.249,204.313 6.576 C 204.410 6.821,204.222 7.226,203.895 7.477 C 203.479 7.798,203.419 7.978,203.695 8.081 C 203.911 8.162,204.088 8.508,204.088 8.850 C 204.088 9.263,203.956 9.392,203.695 9.235 C 203.469 9.099,203.502 9.246,203.774 9.582 C 204.133 10.027,204.152 10.197,203.852 10.297 C 202.480 10.759,203.704 11.273,207.075 11.649 C 209.064 11.870,210.692 12.177,210.692 12.330 C 210.692 12.714,220.188 12.431,222.327 11.983 C 223.278 11.784,225.717 11.514,227.747 11.382 C 229.776 11.250,231.574 11.004,231.742 10.836 C 232.196 10.382,231.626 5.391,231.055 4.820 C 230.021 3.785,220.793 3.305,210.849 3.768 M172.327 4.088 C 172.746 4.359,172.746 4.393,172.327 4.393 C 172.068 4.393,171.643 4.256,171.384 4.088 C 170.964 3.817,170.964 3.783,171.384 3.783 C 171.643 3.783,172.068 3.920,172.327 4.088 M130.061 11.001 C 126.099 11.272,125.639 11.680,125.308 15.211 C 125.015 18.338,125.026 18.357,127.224 18.465 C 133.471 18.773,139.623 18.826,139.623 18.572 C 139.623 18.413,139.941 18.238,140.330 18.182 C 141.151 18.066,141.500 15.938,140.887 14.792 C 140.684 14.413,140.667 14.151,140.845 14.151 C 141.102 14.151,141.112 13.759,140.908 11.853 C 140.893 11.713,140.721 11.697,140.525 11.818 C 140.311 11.950,140.227 11.866,140.314 11.605 C 140.413 11.309,141.142 11.140,142.631 11.067 C 143.826 11.009,144.877 10.886,144.965 10.795 C 145.182 10.570,137.370 11.001,136.993 11.234 C 136.829 11.335,136.796 11.255,136.920 11.055 C 137.169 10.651,135.393 10.637,130.061 11.001 M235.710 11.170 C 235.159 11.590,235.153 11.635,235.650 11.635 C 235.953 11.635,236.110 11.782,235.999 11.961 C 235.677 12.483,235.811 17.972,236.156 18.388 C 236.649 18.981,239.009 19.594,240.566 19.533 C 242.460 19.460,245.572 18.850,245.781 18.511 C 246.048 18.079,249.916 18.196,251.052 18.670 L 252.083 19.101 252.155 22.208 C 252.195 23.916,252.366 25.362,252.535 25.421 C 252.703 25.480,253.036 25.723,253.274 25.961 C 253.560 26.246,254.066 26.329,254.762 26.204 C 262.196 24.865,264.744 25.781,265.013 29.890 C 265.193 32.623,265.740 33.626,267.331 34.131 C 267.657 34.234,267.925 34.437,267.925 34.582 C 267.925 34.727,269.274 34.894,270.924 34.954 C 274.412 35.081,274.516 35.164,274.523 37.814 C 274.529 39.879,273.988 39.653,278.984 39.677 C 280.484 39.685,281.828 39.629,281.972 39.553 C 282.115 39.477,282.940 39.457,283.805 39.508 C 284.670 39.560,285.704 39.607,286.102 39.614 C 286.566 39.622,286.747 39.757,286.604 39.988 C 286.466 40.211,286.520 40.263,286.744 40.124 C 287.402 39.717,287.124 39.232,286.321 39.385 C 285.788 39.487,285.535 39.395,285.535 39.099 C 285.535 38.334,282.792 35.845,282.042 35.930 C 281.654 35.973,281.299 35.802,281.221 35.535 C 281.113 35.160,281.145 35.150,281.379 35.482 C 281.618 35.823,281.709 35.808,281.865 35.404 C 281.999 35.053,281.872 34.906,281.437 34.906 C 281.096 34.906,280.818 34.709,280.818 34.468 C 280.818 33.972,279.969 33.552,279.524 33.827 C 279.362 33.927,279.269 33.825,279.316 33.600 C 279.364 33.375,279.084 33.142,278.695 33.083 C 278.306 33.024,277.987 32.828,277.987 32.649 C 277.987 32.469,277.780 32.402,277.526 32.500 C 277.272 32.597,276.981 32.542,276.878 32.376 C 276.776 32.211,276.551 32.075,276.378 32.075 C 276.205 32.075,276.136 32.193,276.225 32.338 C 276.315 32.482,276.188 32.600,275.943 32.600 C 275.699 32.600,275.572 32.482,275.661 32.338 C 275.750 32.193,275.603 32.075,275.333 32.075 C 274.934 32.075,274.836 31.621,274.808 29.638 C 274.749 25.559,274.716 25.317,274.214 25.272 C 273.954 25.249,272.433 25.213,270.833 25.194 C 268.473 25.164,267.925 25.068,267.925 24.686 C 267.925 24.426,267.798 24.214,267.644 24.214 C 267.489 24.214,267.279 23.994,267.176 23.726 C 267.054 23.410,267.115 23.316,267.348 23.460 C 267.789 23.733,267.463 20.396,266.955 19.449 C 266.296 18.218,263.165 17.765,262.387 18.789 C 262.000 19.300,261.969 19.289,261.960 18.642 C 261.950 17.959,261.872 17.945,257.940 17.957 C 255.735 17.964,253.711 17.959,253.443 17.947 C 253.106 17.931,252.836 17.341,252.564 16.026 C 252.017 13.381,250.981 12.285,248.561 11.795 C 247.537 11.588,246.654 11.530,246.599 11.666 C 246.452 12.036,245.597 11.628,245.597 11.188 C 245.597 10.576,236.511 10.559,235.710 11.170 M111.937 18.347 C 111.016 18.810,110.777 19.494,111.530 19.507 C 112.049 19.516,112.057 19.555,111.604 19.900 C 111.327 20.111,111.062 20.425,111.014 20.597 C 110.966 20.770,110.877 21.053,110.817 21.226 C 110.757 21.399,110.669 22.385,110.621 23.416 L 110.535 25.290 108.876 25.241 C 107.669 25.205,107.274 25.294,107.428 25.567 C 107.577 25.832,107.514 25.827,107.216 25.550 C 106.983 25.334,106.467 25.157,106.069 25.157 C 105.671 25.157,105.344 25.334,105.341 25.550 C 105.338 25.839,105.264 25.830,105.065 25.516 C 104.852 25.179,104.570 25.161,103.734 25.429 C 103.150 25.616,102.001 25.852,101.181 25.954 C 98.617 26.271,97.170 28.219,97.170 31.350 C 97.170 32.221,97.143 32.233,95.204 32.256 C 90.856 32.306,89.623 32.514,89.623 33.197 C 89.623 33.792,90.222 33.777,90.452 33.176 C 90.683 32.575,91.090 32.564,91.090 33.159 C 91.090 33.408,91.008 33.586,90.907 33.554 C 89.942 33.245,89.288 34.600,89.374 36.726 C 89.486 39.467,89.596 39.371,86.342 39.371 C 84.050 39.371,83.647 39.449,83.643 39.890 C 83.639 40.307,83.584 40.324,83.364 39.975 C 83.213 39.737,82.941 39.633,82.761 39.745 C 82.311 40.023,82.380 41.863,82.831 41.602 C 83.021 41.492,82.928 41.684,82.626 42.030 C 82.232 42.481,82.075 43.200,82.075 44.563 L 82.075 46.466 79.089 46.596 C 75.336 46.761,75.341 46.756,75.206 50.644 L 75.098 53.774 73.320 53.819 C 72.341 53.844,71.090 53.834,70.540 53.797 C 69.989 53.760,69.246 53.886,68.889 54.077 C 68.226 54.432,67.984 55.346,68.553 55.346 C 68.726 55.346,68.868 55.503,68.868 55.694 C 68.868 55.885,68.641 55.955,68.364 55.849 C 67.933 55.683,67.872 55.916,67.941 57.466 C 68.101 61.098,68.235 60.892,65.595 61.092 C 61.789 61.380,61.254 61.955,61.120 65.898 C 61.072 67.291,60.947 68.657,60.840 68.934 C 60.518 69.774,60.807 71.549,61.252 71.459 C 61.553 71.398,61.530 71.619,61.161 72.331 C 60.890 72.856,60.690 73.459,60.717 73.671 C 60.889 75.012,60.770 75.077,57.854 75.216 C 54.183 75.392,53.951 75.604,53.872 78.863 C 53.840 80.197,53.715 83.447,53.594 86.085 C 53.424 89.814,53.462 90.881,53.766 90.881 C 54.023 90.881,54.090 90.618,53.964 90.114 C 53.858 89.692,53.912 89.260,54.083 89.154 C 54.259 89.045,54.318 89.163,54.218 89.423 C 54.069 89.811,54.593 89.890,57.492 89.912 L 60.943 89.940 61.109 88.602 C 61.443 85.922,62.012 83.169,62.292 82.877 C 62.450 82.713,62.579 81.831,62.579 80.918 C 62.579 79.121,63.316 76.863,63.928 76.788 C 64.296 76.743,67.050 76.501,67.846 76.443 C 68.062 76.428,68.239 76.203,68.239 75.943 C 68.239 75.684,68.364 75.472,68.517 75.472 C 68.670 75.472,68.854 74.092,68.926 72.406 C 69.006 70.527,69.232 69.035,69.511 68.553 C 69.761 68.121,69.987 67.626,70.013 67.453 C 70.142 66.585,70.539 65.747,70.758 65.882 C 70.893 65.966,71.078 65.841,71.168 65.604 C 71.319 65.211,73.371 64.586,74.011 64.738 C 74.621 64.883,75.453 64.390,75.651 63.766 C 75.868 63.083,76.176 62.641,77.093 61.699 C 77.379 61.404,77.701 60.597,77.807 59.906 C 77.913 59.214,78.210 58.491,78.466 58.299 C 78.721 58.107,78.931 57.812,78.931 57.644 C 78.931 57.227,80.104 56.689,81.525 56.455 C 82.174 56.348,82.704 56.112,82.704 55.931 C 82.704 55.749,82.973 55.223,83.301 54.762 C 83.630 54.301,83.998 53.122,84.121 52.143 C 84.417 49.773,85.120 49.123,87.676 48.856 C 88.747 48.744,89.623 48.547,89.623 48.417 C 89.623 48.287,89.965 48.096,90.383 47.991 C 91.278 47.766,92.295 46.211,92.574 44.642 C 92.789 43.425,93.957 42.508,95.625 42.245 C 96.134 42.165,96.894 41.781,97.314 41.392 C 97.734 41.003,98.570 40.419,99.172 40.095 L 100.266 39.506 100.282 36.993 C 100.293 35.315,100.432 34.396,100.700 34.226 C 100.920 34.086,100.959 33.969,100.786 33.965 C 100.613 33.961,100.896 33.736,101.415 33.464 C 102.145 33.081,103.317 32.975,106.604 32.994 C 111.928 33.024,111.739 33.210,111.936 27.752 C 111.943 27.535,112.150 27.358,112.395 27.358 C 112.640 27.358,112.894 27.200,112.958 27.005 C 113.029 26.793,114.261 26.590,116.051 26.495 C 117.687 26.409,119.167 26.232,119.340 26.102 C 119.513 25.972,120.291 25.773,121.069 25.659 C 123.150 25.356,123.343 25.148,123.388 23.149 C 123.410 22.178,123.336 21.383,123.225 21.383 C 123.113 21.384,123.144 20.853,123.294 20.204 C 123.660 18.613,123.404 17.925,122.445 17.925 C 122.014 17.925,121.742 18.056,121.842 18.217 C 121.941 18.378,121.894 18.590,121.736 18.687 C 121.579 18.785,121.371 18.658,121.274 18.407 C 121.050 17.823,113.079 17.772,111.937 18.347 M278.486 32.347 C 278.394 32.496,278.633 32.598,279.018 32.573 C 279.402 32.549,279.821 32.674,279.948 32.852 C 280.082 33.040,280.181 32.945,280.184 32.626 C 280.189 32.046,278.811 31.820,278.486 32.347 M289.064 39.992 C 289.112 40.221,288.974 40.373,288.758 40.330 C 288.542 40.287,288.365 40.480,288.365 40.760 C 288.365 41.130,288.173 41.220,287.657 41.090 C 287.057 40.939,287.024 40.969,287.441 41.289 C 288.215 41.884,288.403 42.714,287.836 43.032 C 287.539 43.198,287.431 43.473,287.574 43.703 C 287.762 44.007,287.879 43.999,288.110 43.666 C 288.319 43.365,288.350 43.440,288.215 43.921 C 287.373 46.928,288.216 47.547,292.986 47.421 C 295.186 47.363,296.495 47.207,296.422 47.013 C 296.358 46.840,296.181 46.721,296.030 46.749 C 295.879 46.777,295.751 45.845,295.746 44.678 C 295.733 41.297,294.684 40.263,290.794 39.794 C 289.367 39.622,288.997 39.665,289.064 39.992 M296.743 54.015 C 296.649 54.167,296.884 54.281,297.264 54.269 C 297.727 54.253,297.957 54.432,297.959 54.809 C 297.960 55.119,298.158 55.494,298.398 55.642 C 298.638 55.790,298.748 56.136,298.642 56.411 C 298.537 56.686,298.551 56.890,298.675 56.864 C 299.169 56.760,300.629 57.557,300.634 57.932 C 300.637 58.210,300.732 58.188,300.943 57.862 C 301.165 57.519,301.250 57.502,301.253 57.802 C 301.256 58.032,301.418 58.114,301.620 57.989 C 301.873 57.833,301.816 57.644,301.431 57.363 C 301.111 57.128,300.980 56.800,301.118 56.576 C 301.272 56.326,301.224 56.273,300.978 56.425 C 300.377 56.796,299.597 55.988,300.041 55.454 C 300.241 55.213,300.316 54.929,300.209 54.822 C 300.102 54.715,299.932 54.844,299.830 55.109 C 299.579 55.762,298.631 55.468,298.258 54.621 C 297.942 53.903,297.036 53.541,296.743 54.015 M297.045 54.977 C 296.759 55.824,296.762 55.829,297.799 56.109 C 298.488 56.296,298.521 56.270,298.071 55.905 C 297.789 55.675,297.498 55.208,297.424 54.866 C 297.301 54.293,297.272 54.301,297.045 54.977 M301.983 55.163 C 302.048 55.806,302.830 56.273,302.830 55.668 C 302.830 55.470,302.699 55.390,302.540 55.488 C 302.380 55.587,302.176 55.419,302.086 55.114 C 301.948 54.646,301.932 54.654,301.983 55.163 M300.177 56.670 C 300.685 57.226,300.818 57.474,300.473 57.221 C 299.599 56.581,299.057 56.052,299.057 55.840 C 299.057 55.512,299.246 55.652,300.177 56.670 M296.634 57.547 C 296.661 58.239,296.793 58.805,296.927 58.805 C 297.060 58.805,297.170 58.955,297.170 59.138 C 297.170 59.321,297.025 59.382,296.849 59.273 C 296.652 59.151,296.556 59.447,296.601 60.040 C 296.675 61.005,296.967 61.275,297.320 60.704 C 297.422 60.537,297.820 60.502,298.203 60.625 C 299.591 61.071,300.794 60.868,300.700 60.202 C 300.620 59.639,300.640 59.634,300.951 60.142 C 301.410 60.889,301.866 60.838,301.663 60.063 C 301.573 59.717,301.339 59.432,301.143 59.429 C 300.947 59.426,300.998 59.287,301.258 59.119 C 301.541 58.936,301.580 58.813,301.355 58.810 C 301.149 58.807,300.892 58.949,300.783 59.125 C 300.674 59.300,300.451 59.361,300.288 59.260 C 300.124 59.159,300.071 58.944,300.171 58.783 C 300.270 58.622,300.206 58.491,300.028 58.491 C 299.851 58.491,299.783 58.243,299.878 57.940 C 300.037 57.434,300.014 57.436,299.584 57.959 C 299.287 58.321,299.042 58.407,298.911 58.195 C 298.798 58.012,298.855 57.862,299.038 57.862 C 299.221 57.862,299.371 57.714,299.371 57.533 C 299.371 57.353,299.194 57.228,298.978 57.256 C 298.233 57.353,297.799 57.232,297.877 56.950 C 297.921 56.794,297.814 56.667,297.642 56.667 C 297.469 56.667,297.366 56.805,297.413 56.973 C 297.461 57.142,297.353 57.188,297.172 57.077 C 296.992 56.966,296.927 56.743,297.026 56.582 C 297.126 56.421,297.067 56.289,296.896 56.289 C 296.724 56.289,296.606 56.855,296.634 57.547 M298.274 59.439 C 298.382 59.615,298.601 59.678,298.760 59.580 C 298.919 59.482,298.961 59.633,298.852 59.916 C 298.709 60.287,298.590 60.325,298.421 60.052 C 298.293 59.844,297.994 59.552,297.757 59.402 C 297.472 59.221,297.453 59.128,297.702 59.124 C 297.908 59.122,298.165 59.263,298.274 59.439 M300.314 59.764 C 300.314 60.331,299.748 60.335,299.600 59.768 C 299.489 59.347,299.573 59.217,299.878 59.334 C 300.118 59.426,300.314 59.619,300.314 59.764 M303.145 60.910 C 303.145 60.974,303.463 61.155,303.852 61.311 C 304.503 61.572,304.509 61.597,303.931 61.620 C 303.408 61.641,303.381 61.696,303.774 61.950 C 304.088 62.153,304.114 62.256,303.852 62.259 C 303.566 62.263,303.459 63.074,303.459 65.252 L 303.459 68.239 305.896 68.235 C 309.194 68.229,309.754 68.052,309.726 67.023 C 309.710 66.404,309.650 66.330,309.490 66.731 C 309.305 67.195,309.230 67.167,308.925 66.521 C 308.642 65.919,308.657 65.807,309.004 65.940 C 309.556 66.152,309.548 65.663,308.978 64.298 C 308.522 63.207,308.070 62.931,307.704 63.522 C 307.598 63.695,307.645 63.836,307.809 63.836 C 307.974 63.836,308.192 64.053,308.294 64.318 C 308.444 64.710,308.340 64.696,307.741 64.244 C 307.075 63.742,307.053 63.648,307.511 63.296 C 308.257 62.722,307.379 62.219,306.053 62.462 C 305.221 62.614,305.031 62.547,305.031 62.102 C 305.031 61.462,308.209 61.576,308.425 62.224 C 308.490 62.419,308.760 62.579,309.025 62.579 C 309.353 62.579,309.455 62.781,309.343 63.208 C 309.239 63.604,309.302 63.761,309.513 63.631 C 309.730 63.496,309.781 63.677,309.658 64.147 C 309.532 64.629,309.574 64.766,309.783 64.556 C 310.204 64.136,309.829 62.749,309.122 62.109 C 308.633 61.667,303.145 60.566,303.145 60.910 M309.959 66.745 C 310.231 68.178,310.377 68.224,310.377 66.876 C 310.377 66.242,310.239 65.723,310.071 65.723 C 309.895 65.723,309.847 66.158,309.959 66.745 M313.024 75.744 C 313.117 75.894,312.923 76.261,312.592 76.560 C 311.852 77.230,312.070 77.979,312.940 77.752 C 313.424 77.625,313.475 77.523,313.156 77.324 C 312.816 77.113,312.811 76.942,313.129 76.429 C 313.609 75.655,313.620 75.472,313.189 75.472 C 313.006 75.472,312.932 75.594,313.024 75.744 M310.816 76.859 C 310.867 77.339,311.084 77.841,311.298 77.974 C 311.591 78.154,311.564 78.262,311.190 78.405 C 310.916 78.511,310.692 78.748,310.692 78.933 C 310.692 79.118,310.983 78.998,311.339 78.667 L 311.987 78.063 311.355 77.024 L 310.722 75.984 310.816 76.859 M314.177 77.965 C 313.816 78.193,313.905 78.431,314.648 79.218 C 315.535 80.158,316.298 80.550,315.859 79.839 C 315.740 79.647,315.838 79.354,316.076 79.190 C 316.390 78.972,316.327 78.941,315.846 79.075 C 315.438 79.189,315.025 79.069,314.771 78.763 C 314.544 78.490,314.489 78.310,314.648 78.363 C 314.807 78.416,314.983 78.321,315.039 78.153 C 315.181 77.728,314.713 77.626,314.177 77.965 M311.635 79.499 C 311.635 79.754,311.388 80.143,311.085 80.364 C 310.774 80.592,310.656 80.879,310.814 81.028 C 310.967 81.172,311.158 81.104,311.239 80.877 C 311.352 80.561,311.543 80.598,312.055 81.034 C 312.553 81.458,312.624 81.472,312.331 81.092 C 312.057 80.736,312.026 80.344,312.230 79.808 C 312.455 79.214,312.421 79.036,312.079 79.036 C 311.835 79.036,311.635 79.244,311.635 79.499 M312.649 79.930 C 312.373 80.206,312.369 80.408,312.636 80.729 C 313.147 81.345,312.472 82.011,311.855 81.499 C 311.423 81.140,311.006 81.300,311.006 81.826 C 311.006 81.977,311.544 82.069,312.201 82.030 C 312.858 81.992,313.601 82.084,313.852 82.235 C 314.243 82.471,314.247 82.435,313.877 81.979 C 313.639 81.686,313.549 81.447,313.676 81.447 C 313.802 81.447,313.572 81.168,313.164 80.828 C 312.755 80.488,312.598 80.205,312.814 80.199 C 313.031 80.193,313.208 80.330,313.208 80.503 C 313.208 80.676,313.415 80.818,313.669 80.818 C 313.972 80.818,314.062 80.636,313.929 80.291 C 313.774 79.888,313.854 79.814,314.270 79.973 C 314.593 80.097,314.735 80.056,314.620 79.871 C 314.356 79.442,313.099 79.480,312.649 79.930 M314.780 80.896 C 314.780 81.722,315.575 82.382,316.745 82.528 C 317.399 82.610,317.925 82.540,317.925 82.371 C 317.925 82.203,317.514 82.097,317.012 82.135 C 316.072 82.207,314.979 81.573,315.260 81.118 C 315.348 80.977,315.275 80.772,315.099 80.664 C 314.924 80.555,314.780 80.660,314.780 80.896 M315.723 81.013 C 315.723 81.405,315.822 81.442,316.145 81.173 C 316.377 80.981,316.683 80.928,316.825 81.056 C 316.966 81.184,316.980 81.112,316.856 80.896 C 316.529 80.329,315.723 80.412,315.723 81.013 M195.782 85.490 C 195.690 85.639,194.780 85.836,193.760 85.928 C 192.739 86.021,191.567 86.312,191.156 86.576 C 190.350 87.093,188.406 87.667,186.541 87.938 C 183.454 88.386,167.754 88.159,166.971 87.655 C 166.544 87.381,165.487 87.061,164.623 86.945 C 163.758 86.830,162.583 86.575,162.011 86.380 C 161.285 86.132,160.906 86.125,160.753 86.357 C 160.633 86.540,160.076 86.846,159.515 87.038 C 158.419 87.413,156.289 89.296,156.289 89.890 C 156.289 90.089,156.164 90.252,156.010 90.252 C 155.856 90.252,155.637 90.747,155.524 91.352 C 155.410 91.958,155.147 92.455,154.939 92.458 C 154.398 92.466,153.278 93.729,152.990 94.654 C 152.855 95.086,152.601 95.533,152.425 95.646 C 152.005 95.915,152.065 97.911,152.497 98.054 C 152.680 98.116,152.830 98.435,152.830 98.764 C 152.830 99.645,153.555 102.201,153.805 102.201 C 153.923 102.201,154.110 102.559,154.219 102.995 C 154.438 103.869,155.260 104.811,156.077 105.124 C 156.367 105.235,156.604 105.455,156.604 105.612 C 156.604 105.770,157.028 106.074,157.547 106.289 C 158.066 106.504,158.491 106.809,158.491 106.966 C 158.491 107.124,158.738 107.346,159.041 107.461 C 159.344 107.575,159.778 107.854,160.007 108.080 C 160.235 108.306,160.766 108.491,161.186 108.491 C 161.606 108.491,161.950 108.604,161.950 108.742 C 161.950 108.881,163.033 109.150,164.357 109.341 C 165.961 109.572,166.859 109.856,167.046 110.190 C 167.200 110.466,167.674 110.692,168.097 110.692 C 168.521 110.692,168.868 110.821,168.868 110.979 C 168.868 111.136,169.434 111.361,170.126 111.478 C 170.818 111.595,171.384 111.793,171.384 111.918 C 171.384 112.043,172.127 112.334,173.035 112.564 C 173.943 112.794,174.762 113.101,174.856 113.244 C 174.950 113.388,175.304 113.550,175.643 113.603 C 178.129 113.993,178.667 115.840,178.643 123.899 C 178.622 130.823,178.601 131.150,178.114 132.233 C 177.667 133.223,177.743 210.975,178.191 211.254 C 178.389 211.377,178.653 212.433,178.778 213.601 C 178.902 214.768,179.129 215.723,179.282 215.723 C 179.435 215.723,179.560 216.296,179.560 216.996 C 179.560 218.074,179.767 218.479,180.915 219.643 L 182.270 221.018 186.130 221.047 C 188.253 221.063,190.270 221.225,190.611 221.408 C 191.546 221.908,197.866 221.954,198.032 221.462 C 198.106 221.246,198.344 221.069,198.563 221.069 C 198.931 221.069,199.314 220.797,201.164 219.219 C 201.545 218.894,201.955 218.222,202.076 217.726 C 202.197 217.230,202.700 216.434,203.192 215.956 C 203.685 215.479,204.088 214.970,204.088 214.825 C 204.088 214.680,204.373 214.233,204.722 213.831 C 205.070 213.429,205.442 212.558,205.548 211.896 C 205.654 211.234,205.864 210.692,206.015 210.692 C 206.170 210.692,206.289 185.881,206.289 153.616 C 206.289 121.467,206.170 96.541,206.016 96.541 C 205.865 96.541,205.578 95.705,205.377 94.684 C 205.166 93.613,204.816 92.752,204.550 92.650 C 204.296 92.552,204.088 92.271,204.088 92.025 C 204.088 91.778,203.894 91.502,203.657 91.411 C 203.420 91.320,203.133 90.877,203.020 90.426 C 202.767 89.420,200.500 87.166,199.485 86.911 C 199.077 86.808,198.742 86.609,198.742 86.469 C 198.742 86.328,198.318 86.120,197.799 86.006 C 197.280 85.892,196.855 85.669,196.855 85.510 C 196.855 85.144,196.006 85.129,195.782 85.490 M319.838 89.420 C 320.191 89.723,322.013 89.886,322.013 89.615 C 322.013 89.446,321.494 89.308,320.860 89.308 C 320.225 89.308,319.765 89.359,319.838 89.420 M51.785 94.261 C 51.175 94.910,50.218 95.936,49.658 96.541 C 49.098 97.146,48.729 97.394,48.838 97.091 C 49.099 96.368,47.744 96.326,47.035 97.035 C 46.445 97.626,46.381 98.950,46.934 99.136 C 47.228 99.235,47.238 99.381,46.975 99.713 C 46.490 100.325,46.441 103.842,46.889 105.844 L 47.259 107.497 48.708 107.503 C 49.505 107.506,50.915 107.531,51.841 107.558 C 52.767 107.586,53.659 107.473,53.824 107.309 C 54.324 106.808,54.498 101.580,54.097 99.057 C 53.892 97.759,53.647 95.884,53.554 94.890 C 53.353 92.756,53.238 92.716,51.785 94.261 M196.541 100.127 L 196.541 103.713 193.564 103.822 C 189.785 103.960,189.722 104.022,189.413 107.862 L 189.173 110.849 188.942 108.420 C 188.587 104.690,188.188 104.310,184.240 103.932 L 182.159 103.732 182.004 100.772 C 181.838 97.597,181.561 96.965,180.244 96.764 C 179.781 96.693,183.259 96.614,187.972 96.588 L 196.541 96.541 196.541 100.127 M324.711 107.021 C 324.424 111.312,324.761 115.723,325.376 115.723 C 325.623 115.723,325.727 115.567,325.608 115.375 C 325.463 115.141,325.612 115.096,326.061 115.239 C 326.438 115.359,326.730 115.314,326.730 115.137 C 326.730 114.938,327.074 114.923,327.673 115.094 C 328.192 115.243,328.616 115.276,328.616 115.167 C 328.616 115.058,328.786 115.138,328.994 115.346 C 329.524 115.876,329.874 115.815,329.874 115.191 C 329.874 114.713,329.914 114.709,330.267 115.151 C 330.815 115.836,332.075 116.105,332.075 115.537 C 332.075 115.265,331.742 115.092,331.211 115.090 C 330.562 115.086,330.460 115.012,330.803 114.796 C 331.054 114.637,331.359 114.569,331.481 114.644 C 331.603 114.719,331.628 114.498,331.538 114.151 C 331.447 113.805,331.496 113.522,331.646 113.522 C 331.796 113.522,331.939 111.965,331.964 110.063 C 331.989 108.160,331.896 106.604,331.758 106.604 C 331.619 106.604,331.575 106.285,331.660 105.896 C 331.785 105.328,331.749 105.281,331.479 105.660 C 331.231 106.007,331.140 106.023,331.137 105.720 C 331.134 105.481,330.968 105.403,330.739 105.535 C 330.523 105.659,330.451 105.645,330.579 105.504 C 330.707 105.362,330.674 105.080,330.505 104.877 C 330.294 104.622,330.343 104.507,330.665 104.507 C 330.922 104.507,331.132 104.625,331.132 104.769 C 331.132 104.914,331.304 105.031,331.514 105.031 C 332.966 105.031,330.543 103.955,328.862 103.853 C 327.344 103.761,326.996 103.815,327.358 104.088 C 327.752 104.385,327.725 104.417,327.201 104.281 C 326.855 104.191,326.203 104.030,325.752 103.923 L 324.932 103.728 324.711 107.021 M46.614 108.491 C 46.614 109.096,46.679 109.344,46.758 109.041 C 46.837 108.738,46.837 108.243,46.758 107.940 C 46.679 107.638,46.614 107.885,46.614 108.491 M42.296 111.802 C 41.604 112.051,41.018 112.257,40.995 112.259 C 39.911 112.379,38.950 125.746,39.548 132.390 C 39.711 134.213,39.724 135.826,39.576 135.991 C 39.193 136.417,39.236 141.824,39.623 141.824 C 39.796 141.824,39.935 142.142,39.932 142.531 C 39.928 143.104,39.869 143.149,39.623 142.767 C 39.144 142.027,39.216 151.341,39.698 152.397 C 40.007 153.077,40.007 153.279,39.698 153.382 C 39.208 153.545,39.131 164.667,39.618 164.832 C 39.822 164.901,39.823 165.855,39.621 167.610 C 39.211 171.173,39.215 176.730,39.629 176.730 C 39.813 176.730,39.866 177.062,39.752 177.516 C 39.604 178.105,39.678 178.302,40.050 178.302 C 40.374 178.302,40.480 178.475,40.355 178.800 C 40.201 179.201,40.112 179.216,39.898 178.879 C 39.719 178.597,39.631 178.775,39.627 179.421 C 39.622 180.450,40.505 182.014,40.593 181.132 C 40.619 180.873,40.616 180.530,40.586 180.371 C 40.555 180.212,40.753 180.266,41.024 180.492 C 41.373 180.781,41.423 181.015,41.194 181.291 C 40.952 181.582,41.119 181.730,41.858 181.878 C 43.212 182.149,43.465 182.127,43.239 181.761 C 43.132 181.588,43.195 181.447,43.378 181.447 C 43.561 181.447,43.711 181.659,43.711 181.918 C 43.711 182.836,46.437 182.547,46.616 181.611 C 47.016 179.519,47.218 129.442,46.879 116.431 L 46.746 111.321 45.150 111.335 C 44.272 111.342,42.987 111.552,42.296 111.802 M331.947 142.105 C 331.824 146.929,331.824 154.577,331.948 159.100 L 332.172 167.324 333.146 167.127 C 336.615 166.423,337.454 165.826,337.990 163.679 C 339.121 159.146,339.327 157.027,338.601 157.395 C 338.384 157.504,338.476 157.375,338.805 157.109 C 339.587 156.473,339.402 143.007,338.577 140.566 C 338.313 139.788,337.940 138.548,337.747 137.810 C 337.152 135.543,334.425 133.333,332.223 133.333 C 332.194 133.333,332.070 137.280,331.947 142.105 M338.989 152.752 C 338.985 153.629,338.906 153.810,338.679 153.459 C 338.279 152.839,338.279 151.572,338.679 151.572 C 338.852 151.572,338.992 152.103,338.989 152.752 M190.024 167.172 C 190.363 167.512,192.817 167.896,194.733 167.911 L 196.541 167.925 196.541 189.308 L 196.541 210.692 194.104 210.695 C 192.763 210.697,191.136 210.786,190.487 210.894 L 189.308 211.089 189.348 187.698 C 189.369 174.834,189.484 164.907,189.604 165.639 C 189.723 166.371,189.912 167.061,190.024 167.172 M331.377 186.967 C 331.255 187.089,329.756 187.162,328.045 187.131 L 324.934 187.073 324.515 188.569 C 324.159 189.841,324.538 203.260,324.942 203.663 C 325.168 203.889,330.149 203.034,330.699 202.675 C 331.607 202.082,331.725 201.338,331.940 194.811 C 332.114 189.524,331.894 186.450,331.377 186.967 M52.201 194.061 C 52.201 194.278,51.812 194.353,51.179 194.259 C 50.617 194.175,49.831 194.229,49.432 194.379 C 48.963 194.556,48.775 194.541,48.900 194.339 C 49.246 193.778,48.445 194.008,47.799 194.654 C 47.453 195.000,47.170 195.133,47.170 194.950 C 47.170 194.767,47.028 194.704,46.855 194.811 C 46.682 194.918,46.541 195.422,46.541 195.931 C 46.541 196.439,46.682 196.855,46.855 196.855 C 47.028 196.855,47.170 197.005,47.170 197.188 C 47.170 197.372,47.006 197.420,46.806 197.297 C 46.542 197.133,46.508 197.364,46.682 198.143 C 47.155 200.257,47.215 200.864,46.882 200.157 C 46.636 199.637,46.581 199.739,46.563 200.742 L 46.541 201.956 47.188 201.214 C 47.814 200.495,47.824 200.493,47.495 201.172 C 47.200 201.780,47.229 201.845,47.713 201.664 C 48.201 201.481,48.217 201.521,47.842 201.982 C 47.606 202.272,47.288 202.431,47.134 202.336 C 46.981 202.242,46.855 202.329,46.855 202.531 C 46.855 202.732,47.059 202.819,47.307 202.724 C 47.556 202.629,47.819 202.720,47.891 202.926 C 47.964 203.133,47.983 203.043,47.934 202.727 C 47.871 202.321,47.987 202.206,48.328 202.337 C 48.673 202.469,48.758 202.381,48.624 202.031 C 48.510 201.736,48.565 201.620,48.761 201.741 C 48.940 201.852,49.064 202.178,49.035 202.465 C 48.936 203.476,49.062 203.774,49.588 203.774 C 50.052 203.774,50.042 203.714,49.510 203.312 C 48.711 202.708,49.364 202.700,50.514 203.300 C 53.265 204.735,54.058 203.589,54.114 198.096 C 54.145 195.052,54.103 194.825,53.410 194.292 C 52.557 193.635,52.201 193.567,52.201 194.061 M317.452 210.065 C 316.822 211.283,316.850 215.771,317.495 217.045 C 317.993 218.028,323.585 218.304,323.585 217.346 C 323.585 217.113,323.837 216.856,324.145 216.776 C 324.630 216.649,324.714 216.204,324.770 213.475 C 324.858 209.200,324.939 209.295,321.118 209.177 L 317.962 209.079 317.452 210.065 M53.774 210.973 C 53.774 211.197,54.057 211.454,54.403 211.544 C 54.748 211.635,55.031 211.818,55.031 211.953 C 55.031 212.377,54.136 212.560,53.976 212.168 C 53.892 211.961,53.816 212.217,53.808 212.736 C 53.795 213.509,53.849 213.582,54.106 213.142 C 54.282 212.840,54.626 212.684,54.891 212.786 C 55.232 212.917,55.271 213.077,55.031 213.365 C 54.793 213.652,54.829 213.812,55.160 213.939 C 55.413 214.036,55.688 213.947,55.772 213.740 C 55.883 213.468,55.932 213.475,55.950 213.768 C 55.964 213.990,55.656 214.310,55.267 214.480 C 54.643 214.753,54.680 214.777,55.582 214.682 C 56.590 214.576,57.074 215.202,56.211 215.497 C 55.994 215.571,56.148 215.576,56.552 215.508 C 57.004 215.431,57.208 215.509,57.083 215.711 C 56.902 216.004,57.305 216.175,57.940 216.075 C 58.070 216.054,58.186 216.427,58.198 216.903 C 58.218 217.669,58.251 217.696,58.491 217.138 C 58.650 216.767,58.770 216.692,58.783 216.955 C 58.795 217.200,58.896 217.309,59.007 217.198 C 59.118 217.087,59.030 216.781,58.811 216.517 C 58.528 216.175,58.518 216.038,58.776 216.038 C 58.976 216.038,59.221 216.250,59.320 216.509 C 59.420 216.769,59.688 216.981,59.916 216.981 C 60.144 216.981,60.392 217.158,60.466 217.374 C 60.541 217.590,60.570 217.540,60.531 217.262 C 60.492 216.984,60.578 216.544,60.723 216.285 C 60.934 215.908,60.816 215.838,60.132 215.933 C 59.373 216.038,59.352 216.018,59.939 215.757 C 60.632 215.449,60.996 214.120,61.003 211.871 L 61.006 210.692 57.843 210.692 C 55.814 210.692,54.750 210.805,54.874 211.006 C 55.146 211.447,54.607 211.400,54.151 210.943 C 53.857 210.650,53.774 210.656,53.774 210.973 M53.778 215.959 C 53.781 216.262,53.903 216.698,54.049 216.929 C 54.224 217.206,54.303 217.019,54.280 216.379 C 54.244 215.378,53.770 214.981,53.778 215.959 M310.259 222.944 C 309.453 224.666,309.301 230.372,310.038 231.259 C 310.267 231.535,310.331 231.763,310.180 231.766 C 310.029 231.768,310.118 231.908,310.377 232.075 C 311.087 232.534,314.695 232.471,314.886 231.997 C 315.013 231.682,315.050 231.682,315.070 231.997 C 315.112 232.676,316.405 232.425,317.181 231.588 C 317.903 230.809,318.243 229.326,317.610 229.717 C 317.437 229.824,317.296 229.761,317.296 229.578 C 317.296 229.395,317.437 229.245,317.610 229.245 C 318.033 229.245,318.025 223.370,317.602 223.108 C 317.424 222.998,317.318 222.672,317.366 222.382 C 317.439 221.941,317.121 221.843,315.409 221.778 C 314.285 221.735,312.816 221.659,312.146 221.608 C 310.978 221.521,310.899 221.576,310.259 222.944 M61.728 224.764 C 61.616 225.067,61.338 225.428,61.109 225.566 C 60.663 225.835,60.510 228.781,60.928 229.039 C 61.057 229.120,61.115 228.582,61.057 227.845 C 60.982 226.900,61.082 226.453,61.397 226.332 C 61.653 226.234,61.845 226.350,61.845 226.602 C 61.845 226.845,61.727 227.044,61.583 227.044 C 61.439 227.044,61.321 227.265,61.321 227.534 C 61.321 227.804,61.461 227.938,61.632 227.832 C 61.810 227.722,61.862 227.849,61.754 228.132 C 61.609 228.508,61.703 228.571,62.151 228.402 C 62.709 228.190,62.710 228.205,62.183 228.737 C 61.336 229.592,60.842 230.613,61.369 230.422 C 61.602 230.338,62.130 230.569,62.543 230.936 C 63.025 231.364,63.341 231.474,63.424 231.241 C 63.504 231.019,63.846 231.170,64.310 231.634 C 64.784 232.108,65.394 232.374,65.945 232.347 C 66.793 232.306,66.797 232.299,66.038 232.163 C 64.763 231.935,64.639 231.524,65.857 231.565 C 66.525 231.588,66.980 231.763,66.981 231.997 C 66.981 232.213,67.185 232.390,67.434 232.390 C 68.026 232.390,68.306 230.446,68.180 227.201 L 68.082 224.686 65.409 224.647 C 63.852 224.625,62.547 224.756,62.284 224.962 C 61.920 225.246,61.872 225.207,62.038 224.764 C 62.152 224.461,62.174 224.214,62.087 224.214 C 62.001 224.214,61.839 224.461,61.728 224.764 M62.474 229.717 C 62.474 229.976,62.364 230.189,62.230 230.189 C 61.876 230.189,61.618 229.681,61.853 229.446 C 62.197 229.103,62.474 229.224,62.474 229.717 M70.991 239.247 C 69.839 239.321,69.495 239.465,69.487 239.876 C 69.478 240.369,69.445 240.367,69.059 239.858 C 68.407 239.000,68.339 239.177,68.569 241.129 C 68.980 244.611,70.222 245.755,73.591 245.755 L 75.326 245.755 75.320 247.484 C 75.317 248.436,75.430 249.568,75.571 250.000 C 75.762 250.587,75.744 250.667,75.497 250.314 C 75.242 249.950,75.166 250.126,75.162 251.082 C 75.158 252.246,75.186 252.284,75.630 251.711 C 76.088 251.119,76.096 251.119,75.891 251.703 C 75.770 252.046,75.805 252.227,75.972 252.123 C 76.133 252.024,76.490 252.107,76.764 252.308 C 77.254 252.666,77.358 252.862,77.358 253.424 C 77.358 253.577,78.460 253.684,79.807 253.660 C 81.778 253.625,82.263 253.708,82.294 254.088 C 82.315 254.347,82.358 255.550,82.388 256.761 C 82.473 260.132,83.356 261.581,84.464 260.166 C 84.712 259.850,84.896 259.733,84.873 259.906 C 84.768 260.698,84.953 261.006,85.535 261.006 C 85.881 261.006,86.164 260.865,86.164 260.692 C 86.164 260.519,86.376 260.377,86.635 260.377 C 86.895 260.377,87.107 260.519,87.107 260.692 C 87.107 260.865,87.602 261.006,88.208 261.006 L 89.308 261.006 89.308 262.893 C 89.308 264.063,89.440 264.780,89.656 264.780 C 89.848 264.780,89.923 264.992,89.823 265.252 C 89.715 265.533,89.821 265.723,90.086 265.723 C 90.329 265.723,90.630 265.887,90.753 266.086 C 90.877 266.286,90.843 266.366,90.678 266.264 C 90.514 266.163,90.182 266.201,89.942 266.349 C 89.261 266.770,90.175 267.698,91.097 267.522 C 91.497 267.445,91.824 267.504,91.824 267.652 C 91.824 267.799,92.689 267.873,93.746 267.815 C 96.880 267.644,97.000 267.710,97.441 269.848 C 97.992 272.516,98.948 273.469,101.776 274.168 C 103.518 274.599,103.987 274.631,103.865 274.312 C 103.777 274.085,103.871 273.899,104.073 273.899 C 104.275 273.899,104.351 273.756,104.242 273.580 C 104.133 273.404,103.877 273.354,103.673 273.469 C 103.423 273.609,103.430 273.539,103.695 273.254 C 103.940 272.990,104.088 271.904,104.088 270.377 L 104.088 267.925 102.909 267.893 C 102.260 267.875,101.057 267.842,100.236 267.819 C 99.033 267.786,98.742 267.669,98.742 267.222 C 98.742 266.917,98.624 266.667,98.480 266.667 C 98.167 266.667,98.123 266.253,98.130 263.329 C 98.136 260.462,97.661 260.063,94.242 260.063 C 90.929 260.063,90.576 259.698,90.423 256.119 C 90.294 253.106,90.150 252.873,88.365 252.786 C 87.344 252.736,86.874 252.691,84.989 252.466 C 84.014 252.350,83.333 250.761,83.333 248.605 C 83.333 245.670,82.899 245.297,79.509 245.313 C 77.624 245.322,76.520 245.189,76.179 244.912 C 75.744 244.559,75.696 244.571,75.856 244.998 C 76.004 245.395,75.877 245.468,75.247 245.347 C 74.544 245.213,74.515 245.158,74.998 244.888 C 75.445 244.638,75.467 244.530,75.116 244.308 C 74.858 244.144,74.829 244.033,75.044 244.030 C 75.447 244.025,75.638 239.323,75.237 239.287 C 74.110 239.185,72.226 239.168,70.991 239.247 M71.885 243.836 C 72.178 243.948,72.325 244.132,72.212 244.245 C 72.099 244.359,71.583 244.046,71.066 243.550 C 70.549 243.055,70.126 242.812,70.126 243.011 C 70.126 243.490,71.393 244.654,71.915 244.654 C 72.141 244.654,72.327 244.796,72.327 244.969 C 72.327 245.557,71.712 245.286,70.603 244.209 C 69.518 243.155,69.197 242.453,69.801 242.453 C 69.969 242.453,70.023 242.205,69.921 241.903 C 69.820 241.600,70.100 241.865,70.544 242.492 C 70.989 243.119,71.592 243.723,71.885 243.836 M296.541 242.876 C 296.541 243.133,296.435 243.391,296.305 243.449 C 296.175 243.506,295.645 244.367,295.126 245.361 C 294.607 246.354,294.086 247.168,293.968 247.169 C 293.850 247.169,293.672 247.426,293.572 247.739 C 293.389 248.317,291.396 249.371,290.486 249.371 C 289.746 249.371,288.994 249.713,288.994 250.049 C 288.994 250.211,288.640 250.672,288.208 251.073 C 287.775 251.474,287.421 251.955,287.421 252.143 C 287.421 252.331,287.211 252.602,286.955 252.746 C 286.698 252.889,286.349 253.739,286.179 254.633 C 285.812 256.572,284.901 257.722,283.362 258.188 C 281.690 258.696,279.744 259.536,279.525 259.845 C 279.419 259.994,279.207 260.111,279.053 260.103 C 278.422 260.074,277.358 260.465,277.358 260.726 C 277.358 260.880,277.146 261.006,276.887 261.006 C 276.511 261.006,276.415 261.467,276.415 263.261 C 276.415 264.954,276.280 265.666,275.874 266.115 C 275.446 266.587,275.429 266.692,275.795 266.611 C 276.050 266.555,276.258 266.722,276.258 266.981 C 276.258 267.241,276.012 267.433,275.711 267.410 C 275.410 267.386,275.224 267.464,275.297 267.582 C 275.370 267.701,273.779 267.836,271.760 267.883 C 267.472 267.983,267.947 267.774,267.879 269.584 C 267.848 270.387,267.721 270.980,267.595 270.903 C 267.470 270.825,267.299 271.023,267.215 271.343 C 267.030 272.050,266.237 272.217,262.670 272.303 C 261.156 272.340,259.843 272.488,259.753 272.634 C 259.663 272.779,259.059 272.998,258.411 273.119 C 257.763 273.241,257.233 273.455,257.233 273.595 C 257.233 273.735,256.808 273.943,256.289 274.057 C 255.770 274.171,255.346 274.378,255.346 274.517 C 255.346 274.656,255.063 274.843,254.717 274.934 C 254.188 275.072,254.087 275.365,254.083 276.779 C 254.081 277.703,253.949 278.664,253.791 278.914 C 253.616 279.190,253.618 279.584,253.796 279.917 C 253.983 280.265,253.975 280.536,253.774 280.660 C 253.503 280.828,253.354 280.262,253.362 279.085 C 253.363 278.893,252.011 278.748,249.953 278.718 C 248.076 278.692,246.541 278.788,246.541 278.933 C 246.541 279.077,246.116 279.289,245.597 279.403 C 245.079 279.516,244.654 279.729,244.654 279.874 C 244.654 280.020,244.220 280.234,243.689 280.351 C 243.159 280.467,242.648 280.761,242.555 281.004 C 242.462 281.248,242.220 281.447,242.017 281.447 C 240.846 281.447,240.304 284.195,240.546 288.915 C 240.572 289.418,251.921 289.480,252.851 288.983 C 253.309 288.738,253.459 288.320,253.459 287.295 C 253.459 286.059,253.573 285.857,254.692 285.117 C 255.370 284.668,256.179 283.871,256.489 283.345 L 257.054 282.390 262.112 282.390 C 268.234 282.390,267.925 282.601,267.925 278.430 C 267.925 274.959,268.091 274.636,269.679 275.034 C 270.263 275.181,270.440 275.100,270.440 274.686 C 270.440 274.344,270.607 274.211,270.896 274.321 C 271.200 274.438,271.294 274.345,271.177 274.042 C 271.082 273.793,270.841 273.686,270.643 273.804 C 270.445 273.923,270.477 273.781,270.715 273.488 C 271.201 272.889,272.013 272.774,272.013 273.304 C 272.013 273.496,271.793 273.568,271.525 273.465 C 271.256 273.362,271.117 273.408,271.216 273.567 C 271.507 274.039,273.327 273.871,273.142 273.389 C 273.055 273.162,273.154 272.878,273.363 272.758 C 273.571 272.639,273.648 272.646,273.532 272.775 C 273.416 272.904,273.468 273.427,273.646 273.938 C 273.964 274.852,274.810 274.487,274.828 273.428 C 274.831 273.255,274.696 273.325,274.528 273.585 C 274.268 273.987,274.223 273.974,274.219 273.500 C 274.215 273.081,274.388 272.987,274.921 273.118 C 276.619 273.534,279.650 270.998,280.094 268.789 L 280.267 267.925 283.766 267.888 C 285.690 267.868,287.476 267.868,287.736 267.887 C 289.047 267.984,289.192 267.549,289.268 263.286 L 289.308 261.006 292.475 261.006 C 296.560 261.006,296.541 261.026,296.541 256.941 L 296.541 253.774 297.720 253.742 C 298.369 253.724,299.342 253.734,299.882 253.762 C 301.730 253.861,303.056 253.044,303.260 251.681 C 303.905 247.355,302.991 240.262,302.121 242.846 C 302.020 243.146,301.851 243.127,301.406 242.767 C 300.887 242.348,300.854 242.348,301.101 242.767 C 301.322 243.143,301.287 243.169,300.925 242.892 C 300.181 242.323,296.541 242.310,296.541 242.876 M75.771 252.566 C 75.407 252.824,75.433 252.851,75.900 252.699 C 76.334 252.558,76.438 252.632,76.303 252.984 C 76.202 253.245,76.257 253.459,76.425 253.459 C 76.791 253.459,76.834 252.617,76.479 252.398 C 76.341 252.313,76.022 252.388,75.771 252.566 M115.308 274.420 C 115.235 274.492,114.936 274.545,112.028 275.002 L 110.692 275.213 110.692 277.386 C 110.692 278.588,110.829 279.560,110.998 279.560 C 111.167 279.560,111.226 279.957,111.129 280.442 C 110.916 281.504,111.420 282.006,112.923 282.234 C 113.512 282.323,113.817 282.312,113.601 282.210 C 113.384 282.107,113.208 281.871,113.208 281.686 C 113.208 281.501,113.466 281.583,113.783 281.870 C 114.468 282.490,114.974 282.535,115.225 281.997 C 115.372 281.682,115.445 281.682,115.592 281.997 C 115.833 282.513,119.549 282.526,120.063 282.013 C 120.307 281.769,120.440 280.506,120.440 278.439 L 120.440 275.243 119.061 274.716 C 117.936 274.286,115.624 274.104,115.308 274.420 M127.358 281.681 C 125.324 281.956,125.168 282.228,125.200 285.438 C 125.227 288.070,125.279 288.326,125.689 287.825 C 125.941 287.517,126.058 287.441,125.948 287.657 C 125.839 287.873,125.889 288.050,126.061 288.050 C 126.232 288.050,126.463 288.333,126.572 288.679 C 126.682 289.025,126.983 289.308,127.241 289.308 C 127.499 289.308,127.623 289.167,127.516 288.995 C 127.391 288.792,127.625 288.796,128.177 289.006 C 129.175 289.385,133.705 289.350,134.324 288.958 C 134.558 288.810,134.607 288.685,134.434 288.679 C 134.261 288.674,134.295 288.558,134.509 288.422 C 134.760 288.263,134.928 287.183,134.981 285.399 L 135.063 282.623 133.962 282.025 C 132.913 281.456,130.110 281.310,127.358 281.681 M224.135 287.028 C 223.660 287.094,223.270 287.265,223.270 287.407 C 223.270 287.549,222.775 287.759,222.170 287.872 C 221.564 287.986,221.069 288.196,221.069 288.338 C 221.069 288.481,220.447 288.772,219.688 288.984 L 218.306 289.371 218.283 292.956 L 218.260 296.541 228.290 296.541 C 240.284 296.541,239.308 296.915,239.308 292.322 C 239.308 288.395,239.101 288.109,235.938 287.685 C 232.281 287.194,225.609 286.823,224.135 287.028 M149.686 288.851 C 147.869 289.079,144.844 289.276,142.963 289.287 L 139.541 289.308 139.762 291.260 C 140.206 295.186,141.141 296.009,145.203 296.049 C 146.283 296.060,147.167 296.157,147.168 296.265 C 147.169 296.372,149.664 296.443,152.712 296.422 L 158.254 296.384 158.293 292.873 L 158.333 289.363 155.818 288.864 C 154.434 288.589,153.231 288.380,153.145 288.400 C 153.058 288.419,151.502 288.622,149.686 288.851 M179.149 297.529 C 179.461 298.072,180.269 298.921,180.943 299.416 L 182.170 300.314 189.294 300.314 C 196.335 300.314,196.431 300.306,197.449 299.554 C 198.304 298.924,200.000 296.984,200.000 296.637 C 200.000 296.584,195.181 296.541,189.290 296.541 L 178.581 296.541 179.149 297.529 " stroke="none" fill="#f9c8c8" fill-rule="evenodd"></path><path id="path1" d="M159.990 3.687 C 160.555 3.757,161.404 3.756,161.877 3.684 C 162.349 3.612,161.887 3.555,160.849 3.557 C 159.811 3.558,159.425 3.617,159.990 3.687 M177.909 3.690 C 177.087 3.755,176.415 3.947,176.415 4.116 C 176.415 4.312,176.193 4.306,175.807 4.099 C 175.002 3.669,173.991 3.685,173.714 4.134 C 173.559 4.385,173.729 4.434,174.277 4.297 C 175.250 4.053,175.592 4.347,175.076 4.983 C 174.753 5.381,174.771 5.432,175.183 5.278 C 175.753 5.064,175.891 5.891,175.390 6.525 C 175.192 6.777,175.189 7.060,175.381 7.311 C 175.666 7.682,175.640 10.629,175.350 10.919 C 174.813 11.455,160.524 11.631,153.302 11.190 C 144.216 10.636,140.252 10.780,140.252 11.665 C 140.252 11.842,140.393 11.899,140.566 11.792 C 140.739 11.686,140.893 11.713,140.908 11.853 C 141.112 13.759,141.102 14.151,140.845 14.151 C 140.667 14.151,140.684 14.413,140.887 14.792 C 141.500 15.938,141.151 18.066,140.330 18.182 C 139.941 18.238,139.623 18.413,139.623 18.572 C 139.623 18.743,137.466 18.800,134.355 18.710 C 126.939 18.495,125.537 18.409,125.279 18.151 C 124.766 17.639,123.222 17.904,123.397 18.475 C 123.490 18.778,123.443 19.556,123.294 20.204 C 123.144 20.853,123.113 21.384,123.225 21.383 C 123.336 21.383,123.410 22.178,123.388 23.149 C 123.343 25.148,123.150 25.356,121.069 25.659 C 120.291 25.773,119.513 25.972,119.340 26.102 C 119.167 26.232,117.687 26.409,116.051 26.495 C 114.261 26.590,113.029 26.793,112.958 27.005 C 112.894 27.200,112.640 27.358,112.395 27.358 C 112.150 27.358,111.943 27.535,111.936 27.752 C 111.739 33.210,111.928 33.024,106.604 32.994 C 103.317 32.975,102.145 33.081,101.415 33.464 C 100.896 33.736,100.613 33.961,100.786 33.965 C 100.959 33.969,100.920 34.086,100.700 34.226 C 100.432 34.396,100.293 35.315,100.282 36.993 L 100.266 39.506 99.172 40.095 C 98.570 40.419,97.734 41.003,97.314 41.392 C 96.894 41.781,96.134 42.165,95.625 42.245 C 93.957 42.508,92.789 43.425,92.574 44.642 C 92.295 46.211,91.278 47.766,90.383 47.991 C 89.965 48.096,89.623 48.287,89.623 48.417 C 89.623 48.547,88.747 48.744,87.676 48.856 C 85.120 49.123,84.417 49.773,84.121 52.143 C 83.998 53.122,83.630 54.301,83.301 54.762 C 82.973 55.223,82.704 55.749,82.704 55.931 C 82.704 56.112,82.174 56.348,81.525 56.455 C 80.104 56.689,78.931 57.227,78.931 57.644 C 78.931 57.812,78.721 58.107,78.466 58.299 C 78.210 58.491,77.913 59.214,77.807 59.906 C 77.701 60.597,77.379 61.404,77.093 61.699 C 76.176 62.641,75.868 63.083,75.651 63.766 C 75.453 64.390,74.621 64.883,74.011 64.738 C 73.371 64.586,71.319 65.211,71.168 65.604 C 71.078 65.841,70.893 65.966,70.758 65.882 C 70.539 65.747,70.142 66.585,70.013 67.453 C 69.987 67.626,69.761 68.121,69.511 68.553 C 69.232 69.035,69.006 70.527,68.926 72.406 C 68.854 74.092,68.670 75.472,68.517 75.472 C 68.364 75.472,68.239 75.684,68.239 75.943 C 68.239 76.203,68.062 76.428,67.846 76.443 C 67.050 76.501,64.296 76.743,63.928 76.788 C 63.316 76.863,62.579 79.121,62.579 80.918 C 62.579 81.831,62.450 82.713,62.292 82.877 C 62.012 83.169,61.443 85.922,61.109 88.602 L 60.943 89.940 57.492 89.912 C 54.593 89.890,54.069 89.811,54.218 89.423 C 54.318 89.163,54.259 89.045,54.083 89.154 C 53.912 89.260,53.858 89.692,53.964 90.114 C 54.088 90.609,54.022 90.881,53.777 90.881 C 53.319 90.881,53.490 95.421,54.085 99.057 C 54.498 101.577,54.332 106.800,53.824 107.309 C 53.659 107.473,52.767 107.586,51.841 107.558 C 50.915 107.531,49.503 107.506,48.703 107.503 C 47.256 107.497,47.247 107.491,46.943 106.186 C 46.735 105.291,46.698 107.524,46.825 113.208 C 47.077 124.422,47.017 172.893,46.736 185.170 C 46.579 192.020,46.611 194.963,46.840 194.821 C 47.021 194.709,47.170 194.767,47.170 194.950 C 47.170 195.133,47.453 195.000,47.799 194.654 C 48.445 194.008,49.246 193.778,48.900 194.339 C 48.774 194.543,48.965 194.554,49.448 194.370 C 49.855 194.215,50.586 194.164,51.071 194.257 C 51.602 194.358,52.050 194.270,52.195 194.035 C 52.623 193.343,54.037 194.549,54.149 195.700 C 54.346 197.739,53.874 202.888,53.467 203.140 C 53.233 203.284,53.169 203.558,53.313 203.792 C 53.450 204.013,53.537 206.116,53.507 208.465 C 53.470 211.388,53.551 212.587,53.765 212.264 C 53.965 211.964,54.080 211.932,54.083 212.176 C 54.086 212.386,54.300 212.477,54.560 212.378 C 55.220 212.125,55.147 211.739,54.403 211.544 C 54.057 211.454,53.774 211.197,53.774 210.973 C 53.774 210.656,53.857 210.650,54.151 210.943 C 54.607 211.400,55.146 211.447,54.874 211.006 C 54.750 210.805,55.814 210.692,57.843 210.692 L 61.006 210.692 61.003 211.871 C 60.996 214.120,60.632 215.449,59.939 215.757 C 59.352 216.018,59.374 216.038,60.132 215.933 C 60.602 215.867,60.907 215.944,60.809 216.102 C 60.472 216.648,60.706 225.613,61.066 225.941 C 61.307 226.161,61.345 226.138,61.191 225.865 C 61.069 225.649,61.119 225.472,61.302 225.472 C 61.485 225.472,61.635 225.268,61.635 225.019 C 61.635 224.769,61.775 224.479,61.946 224.373 C 62.133 224.258,62.172 224.407,62.044 224.748 C 61.873 225.206,61.918 225.247,62.284 224.962 C 62.547 224.756,63.852 224.625,65.409 224.647 L 68.082 224.686 68.009 231.761 L 67.936 238.836 68.716 239.577 C 69.335 240.164,69.497 240.213,69.497 239.813 C 69.497 239.303,69.813 239.260,73.585 239.260 C 74.277 239.260,74.985 239.271,75.158 239.284 C 75.615 239.319,75.502 244.024,75.044 244.030 C 74.829 244.033,74.858 244.144,75.116 244.308 C 75.467 244.530,75.445 244.638,74.998 244.888 C 74.515 245.158,74.544 245.213,75.247 245.347 C 75.877 245.468,76.004 245.395,75.856 244.998 C 75.696 244.571,75.744 244.559,76.179 244.912 C 76.520 245.189,77.624 245.322,79.509 245.313 C 82.899 245.297,83.333 245.670,83.333 248.605 C 83.333 250.761,84.014 252.350,84.989 252.466 C 86.874 252.691,87.344 252.736,88.365 252.786 C 90.150 252.873,90.294 253.106,90.423 256.119 C 90.576 259.698,90.929 260.063,94.242 260.063 C 97.661 260.063,98.136 260.462,98.130 263.329 C 98.123 266.253,98.167 266.667,98.480 266.667 C 98.624 266.667,98.742 266.917,98.742 267.222 C 98.742 267.669,99.033 267.786,100.236 267.819 C 101.057 267.842,102.260 267.875,102.909 267.893 L 104.088 267.925 104.088 270.377 C 104.088 271.917,103.942 272.979,103.695 273.230 C 103.479 273.450,103.443 273.603,103.616 273.570 C 104.254 273.449,104.548 273.602,104.156 273.851 C 102.315 275.019,110.258 275.698,114.151 274.705 C 116.236 274.173,117.634 274.171,119.012 274.697 L 120.440 275.243 120.440 278.483 C 120.440 280.594,120.314 281.802,120.077 281.948 C 119.837 282.097,119.800 282.033,119.969 281.761 C 120.138 281.487,120.100 281.425,119.855 281.577 C 119.004 282.103,120.028 282.390,122.754 282.390 C 124.378 282.390,125.807 282.243,125.993 282.057 C 126.681 281.369,132.745 281.333,133.962 282.010 L 135.063 282.623 134.981 285.399 C 134.928 287.183,134.760 288.263,134.509 288.422 C 134.295 288.558,134.261 288.674,134.434 288.679 C 134.607 288.685,134.536 288.826,134.277 288.994 C 133.536 289.472,145.487 289.364,149.818 288.853 C 153.113 288.464,153.855 288.468,155.950 288.888 L 158.333 289.366 158.289 292.953 L 158.244 296.541 188.241 296.541 L 218.239 296.541 218.257 295.362 C 218.267 294.713,218.278 293.101,218.280 291.780 L 218.285 289.377 219.677 288.987 C 220.443 288.773,221.069 288.486,221.069 288.349 C 221.069 288.212,221.529 288.001,222.091 287.879 C 222.653 287.757,223.213 287.500,223.335 287.308 C 223.546 286.975,229.903 286.951,232.704 287.272 C 237.045 287.769,238.127 288.013,238.795 288.640 C 240.242 290.000,240.490 289.624,240.543 285.995 C 240.592 282.659,240.985 281.447,242.017 281.447 C 242.220 281.447,242.462 281.248,242.555 281.004 C 242.648 280.761,243.159 280.467,243.689 280.351 C 244.220 280.234,244.654 280.020,244.654 279.874 C 244.654 279.729,245.079 279.516,245.597 279.403 C 246.116 279.289,246.541 279.077,246.541 278.933 C 246.541 278.788,248.076 278.692,249.953 278.718 C 252.011 278.748,253.363 278.893,253.362 279.085 C 253.354 280.262,253.503 280.828,253.774 280.660 C 253.975 280.536,253.983 280.265,253.796 279.917 C 253.618 279.584,253.616 279.190,253.791 278.914 C 253.949 278.664,254.081 277.703,254.083 276.779 C 254.087 275.365,254.188 275.072,254.717 274.934 C 255.063 274.843,255.346 274.656,255.346 274.517 C 255.346 274.378,255.770 274.171,256.289 274.057 C 256.808 273.943,257.233 273.735,257.233 273.595 C 257.233 273.455,257.763 273.241,258.411 273.119 C 259.059 272.998,259.663 272.779,259.753 272.634 C 259.843 272.488,261.156 272.340,262.670 272.303 C 266.237 272.217,267.030 272.050,267.215 271.343 C 267.299 271.023,267.470 270.825,267.595 270.903 C 267.721 270.980,267.848 270.387,267.879 269.584 C 267.947 267.774,267.472 267.983,271.760 267.883 C 273.779 267.836,275.370 267.701,275.297 267.582 C 275.224 267.464,275.410 267.386,275.711 267.410 C 276.012 267.433,276.258 267.241,276.258 266.981 C 276.258 266.722,276.050 266.555,275.795 266.611 C 275.429 266.692,275.446 266.587,275.874 266.115 C 276.280 265.666,276.415 264.954,276.415 263.261 C 276.415 261.467,276.511 261.006,276.887 261.006 C 277.146 261.006,277.358 260.880,277.358 260.726 C 277.358 260.465,278.422 260.074,279.053 260.103 C 279.207 260.111,279.419 259.994,279.525 259.845 C 279.744 259.536,281.690 258.696,283.362 258.188 C 284.901 257.722,285.812 256.572,286.179 254.633 C 286.349 253.739,286.698 252.889,286.955 252.746 C 287.211 252.602,287.421 252.331,287.421 252.143 C 287.421 251.955,287.775 251.474,288.208 251.073 C 288.640 250.672,288.994 250.211,288.994 250.049 C 288.994 249.713,289.746 249.371,290.486 249.371 C 291.396 249.371,293.389 248.317,293.572 247.739 C 293.672 247.426,293.850 247.169,293.968 247.169 C 294.086 247.168,294.607 246.354,295.126 245.361 C 295.645 244.367,296.175 243.506,296.305 243.449 C 296.435 243.391,296.541 243.133,296.541 242.876 C 296.541 242.310,300.181 242.323,300.925 242.892 C 301.287 243.169,301.322 243.143,301.101 242.767 C 300.854 242.348,300.887 242.348,301.406 242.767 C 301.851 243.127,302.020 243.146,302.121 242.846 C 302.362 242.130,303.100 242.439,303.249 243.318 C 303.354 243.941,303.395 243.831,303.396 242.925 C 303.397 242.233,303.412 241.136,303.429 240.487 L 303.459 239.308 306.525 239.298 C 310.621 239.285,310.606 239.299,310.642 235.293 C 310.662 233.088,310.559 232.075,310.315 232.075 C 310.118 232.075,310.051 231.982,310.165 231.869 C 310.279 231.755,310.223 231.482,310.041 231.263 C 309.268 230.331,309.312 225.433,310.112 223.458 L 310.864 221.601 313.372 221.678 C 317.394 221.802,317.462 221.814,317.366 222.387 C 317.318 222.674,317.424 222.998,317.602 223.108 C 318.107 223.420,318.012 218.066,317.494 217.044 C 316.850 215.771,316.822 211.282,317.452 210.065 L 317.962 209.079 321.115 209.177 C 323.514 209.251,324.336 209.388,324.546 209.747 C 324.950 210.435,324.916 204.465,324.473 196.684 C 324.164 191.251,324.171 189.797,324.515 188.569 L 324.934 187.073 327.999 187.130 C 329.684 187.161,331.211 187.096,331.391 186.984 C 331.580 186.867,331.769 187.150,331.838 187.652 C 331.905 188.130,331.950 172.180,331.938 152.206 C 331.918 116.143,331.914 115.888,331.289 115.780 C 330.943 115.719,330.483 115.443,330.267 115.165 C 329.909 114.704,329.874 114.706,329.874 115.191 C 329.874 115.815,329.524 115.876,328.994 115.346 C 328.786 115.138,328.616 115.058,328.616 115.167 C 328.616 115.276,328.192 115.243,327.673 115.094 C 327.074 114.923,326.730 114.938,326.730 115.137 C 326.730 115.314,326.438 115.359,326.061 115.239 C 325.612 115.096,325.463 115.141,325.608 115.375 C 325.727 115.568,325.622 115.723,325.371 115.723 C 324.704 115.723,324.609 113.347,324.780 101.022 C 324.895 92.780,324.842 90.252,324.554 90.252 C 324.346 90.252,324.274 90.095,324.392 89.903 C 324.537 89.669,324.388 89.625,323.939 89.767 C 323.542 89.893,323.270 89.843,323.270 89.644 C 323.270 89.246,322.112 89.187,321.960 89.578 C 321.903 89.726,320.971 89.699,319.890 89.518 L 317.925 89.188 317.925 85.946 C 317.925 84.163,317.818 82.688,317.689 82.669 C 317.559 82.649,317.031 82.584,316.515 82.525 C 315.564 82.415,314.780 81.679,314.780 80.896 C 314.780 80.660,314.924 80.555,315.099 80.664 C 315.275 80.772,315.344 80.983,315.251 81.132 C 314.984 81.565,316.297 82.313,317.066 82.166 C 317.806 82.024,318.280 76.730,317.553 76.730 C 317.391 76.730,317.346 76.588,317.453 76.415 C 317.560 76.242,317.550 75.944,317.432 75.753 C 317.282 75.510,317.135 75.534,316.947 75.831 C 316.727 76.177,316.675 76.167,316.671 75.778 C 316.666 75.247,311.861 75.067,311.085 75.569 C 310.780 75.766,310.681 75.046,310.645 72.346 C 310.588 68.179,310.584 68.124,310.348 67.925 C 309.999 67.630,309.758 65.723,310.071 65.723 C 310.239 65.723,310.377 65.272,310.377 64.720 C 310.377 63.765,310.354 63.746,309.904 64.327 C 309.464 64.894,309.453 64.873,309.755 64.031 C 310.140 62.955,309.924 62.084,309.204 61.808 C 308.728 61.625,308.729 61.659,309.216 62.197 C 309.806 62.849,309.898 63.393,309.463 63.661 C 309.306 63.758,309.252 63.554,309.343 63.208 C 309.455 62.781,309.353 62.579,309.025 62.579 C 308.760 62.579,308.490 62.419,308.425 62.224 C 308.209 61.576,305.031 61.462,305.031 62.102 C 305.031 62.547,305.221 62.614,306.053 62.462 C 307.379 62.219,308.257 62.722,307.511 63.296 C 307.053 63.648,307.075 63.742,307.741 64.244 C 308.340 64.696,308.444 64.710,308.294 64.318 C 308.192 64.053,307.974 63.836,307.809 63.836 C 307.645 63.836,307.598 63.695,307.704 63.522 C 308.070 62.931,308.522 63.207,308.978 64.298 C 309.548 65.663,309.556 66.152,309.004 65.940 C 308.657 65.807,308.642 65.919,308.925 66.521 C 309.230 67.167,309.305 67.195,309.490 66.731 C 309.650 66.330,309.710 66.404,309.726 67.023 C 309.754 68.052,309.194 68.229,305.896 68.235 L 303.459 68.239 303.459 65.252 C 303.459 63.074,303.566 62.263,303.852 62.259 C 304.114 62.256,304.088 62.153,303.774 61.950 C 303.381 61.696,303.408 61.640,303.931 61.618 C 304.550 61.591,304.550 61.587,303.943 61.350 C 303.532 61.189,303.322 60.804,303.314 60.193 C 303.306 59.555,303.158 59.302,302.830 59.360 C 302.440 59.429,302.446 59.374,302.866 59.042 C 303.470 58.565,303.598 54.526,303.021 54.169 C 302.538 53.870,298.104 53.834,297.286 54.122 C 296.631 54.353,296.614 54.282,296.562 51.023 C 296.496 46.879,296.846 47.222,292.849 47.394 C 288.261 47.591,287.374 46.926,288.215 43.921 C 288.350 43.440,288.319 43.365,288.110 43.666 C 287.879 43.999,287.762 44.007,287.574 43.703 C 287.431 43.473,287.539 43.198,287.836 43.032 C 288.403 42.714,288.215 41.884,287.441 41.289 C 287.024 40.969,287.057 40.939,287.657 41.090 C 288.180 41.222,288.365 41.131,288.365 40.741 C 288.365 40.452,288.497 40.296,288.658 40.395 C 289.093 40.665,289.309 40.132,288.978 39.608 C 288.819 39.356,288.687 39.304,288.684 39.492 C 288.681 39.679,288.473 39.832,288.221 39.832 C 287.970 39.832,287.836 39.714,287.925 39.570 C 288.239 39.063,287.328 39.315,286.882 39.858 C 286.634 40.161,286.521 40.232,286.630 40.016 C 286.740 39.800,286.644 39.605,286.418 39.583 C 285.091 39.455,282.193 39.435,281.972 39.552 C 281.828 39.628,280.484 39.685,278.984 39.677 C 273.988 39.653,274.529 39.879,274.523 37.814 C 274.516 35.164,274.412 35.081,270.924 34.954 C 269.274 34.894,267.925 34.727,267.925 34.582 C 267.925 34.437,267.657 34.234,267.331 34.131 C 265.740 33.626,265.193 32.623,265.013 29.890 C 264.744 25.781,262.196 24.865,254.762 26.204 C 254.066 26.329,253.560 26.246,253.274 25.961 C 253.036 25.723,252.703 25.480,252.535 25.421 C 252.366 25.362,252.195 23.916,252.155 22.208 L 252.083 19.101 251.052 18.670 C 249.916 18.196,246.048 18.079,245.781 18.511 C 245.572 18.850,242.460 19.460,240.566 19.533 C 239.009 19.594,236.649 18.981,236.156 18.388 C 235.811 17.972,235.677 12.483,235.999 11.961 C 236.110 11.782,235.953 11.635,235.650 11.635 C 235.152 11.635,235.158 11.590,235.710 11.157 C 236.268 10.720,236.117 10.691,233.962 10.823 C 229.178 11.116,224.009 11.631,222.327 11.983 C 220.188 12.431,210.692 12.714,210.692 12.330 C 210.692 12.177,209.064 11.870,207.075 11.649 C 203.704 11.273,202.480 10.759,203.852 10.297 C 204.152 10.197,204.133 10.027,203.774 9.582 C 203.502 9.246,203.469 9.099,203.695 9.235 C 203.956 9.392,204.088 9.263,204.088 8.850 C 204.088 8.508,203.911 8.162,203.695 8.081 C 203.419 7.978,203.479 7.798,203.895 7.477 C 204.222 7.226,204.410 6.821,204.313 6.576 C 204.184 6.249,204.131 6.277,204.113 6.682 C 204.053 7.999,203.532 7.081,203.532 5.660 L 203.532 4.088 204.675 4.045 C 214.906 3.664,213.544 3.573,197.642 3.573 C 187.610 3.573,178.730 3.625,177.909 3.690 M171.384 4.088 C 171.643 4.256,172.068 4.393,172.327 4.393 C 172.746 4.393,172.746 4.359,172.327 4.088 C 172.068 3.920,171.643 3.783,171.384 3.783 C 170.964 3.783,170.964 3.817,171.384 4.088 M136.995 10.933 C 136.913 11.066,137.435 11.130,138.155 11.074 C 140.272 10.911,140.529 10.767,138.776 10.728 C 137.879 10.708,137.077 10.801,136.995 10.933 M261.950 18.553 C 261.950 19.140,262.034 19.224,262.327 18.931 C 262.621 18.637,262.621 18.470,262.327 18.176 C 262.034 17.883,261.950 17.966,261.950 18.553 M276.878 32.376 C 276.981 32.542,277.272 32.597,277.526 32.500 C 277.780 32.402,277.987 32.469,277.987 32.649 C 277.987 32.828,278.306 33.024,278.695 33.083 C 279.084 33.142,279.364 33.375,279.316 33.600 C 279.269 33.825,279.362 33.927,279.524 33.827 C 279.969 33.552,280.818 33.972,280.818 34.468 C 280.818 34.709,281.101 34.906,281.447 34.906 C 281.956 34.906,282.075 34.696,282.075 33.805 C 282.075 32.745,281.865 32.551,280.865 32.688 C 280.631 32.720,280.533 32.595,280.647 32.411 C 280.761 32.226,280.705 32.075,280.522 32.075 C 280.339 32.075,280.178 32.323,280.164 32.626 C 280.150 32.928,280.070 33.007,279.986 32.801 C 279.902 32.594,279.645 32.498,279.414 32.586 C 279.183 32.675,278.901 32.596,278.787 32.411 C 278.673 32.227,278.155 32.075,277.636 32.075 C 277.116 32.075,276.776 32.210,276.878 32.376 M89.966 33.524 C 89.549 33.938,89.355 34.277,89.534 34.277 C 89.713 34.277,90.035 34.066,90.249 33.808 C 90.462 33.551,90.739 33.403,90.864 33.480 C 90.988 33.557,91.090 33.414,91.090 33.162 C 91.090 32.554,90.871 32.624,89.966 33.524 M281.254 35.586 C 281.377 36.215,282.076 36.261,282.071 35.639 C 282.067 35.194,282.004 35.160,281.794 35.492 C 281.603 35.793,281.472 35.814,281.351 35.562 C 281.234 35.318,281.203 35.326,281.254 35.586 M298.428 54.856 C 298.428 55.473,299.608 55.686,299.830 55.109 C 299.932 54.844,300.102 54.715,300.209 54.822 C 300.316 54.929,300.241 55.213,300.041 55.454 C 299.597 55.988,300.377 56.796,300.978 56.425 C 301.224 56.273,301.272 56.326,301.118 56.576 C 300.980 56.800,301.111 57.128,301.431 57.363 C 301.816 57.644,301.873 57.833,301.620 57.989 C 301.418 58.114,301.256 58.032,301.253 57.802 C 301.250 57.502,301.165 57.519,300.943 57.862 C 300.732 58.188,300.637 58.210,300.634 57.932 C 300.629 57.557,299.169 56.760,298.675 56.864 C 298.551 56.890,298.537 56.686,298.642 56.411 C 298.748 56.136,298.646 55.795,298.417 55.654 C 298.188 55.512,297.979 55.108,297.953 54.757 C 297.927 54.405,298.023 54.190,298.167 54.278 C 298.310 54.367,298.428 54.627,298.428 54.856 M298.071 55.905 C 298.521 56.270,298.488 56.296,297.799 56.109 C 296.762 55.829,296.759 55.824,297.045 54.977 C 297.272 54.301,297.301 54.293,297.424 54.866 C 297.498 55.208,297.789 55.675,298.071 55.905 M302.540 55.488 C 302.699 55.390,302.830 55.470,302.830 55.668 C 302.830 56.273,302.048 55.806,301.983 55.163 C 301.932 54.654,301.948 54.646,302.086 55.114 C 302.176 55.419,302.380 55.587,302.540 55.488 M299.057 55.840 C 299.057 56.052,299.599 56.581,300.473 57.221 C 300.818 57.474,300.685 57.226,300.177 56.670 C 299.246 55.652,299.057 55.512,299.057 55.840 M297.026 56.582 C 296.927 56.743,296.992 56.966,297.172 57.077 C 297.353 57.188,297.461 57.142,297.413 56.973 C 297.366 56.805,297.469 56.667,297.642 56.667 C 297.814 56.667,297.921 56.794,297.877 56.950 C 297.799 57.232,298.233 57.353,298.978 57.256 C 299.194 57.228,299.371 57.353,299.371 57.533 C 299.371 57.714,299.221 57.862,299.038 57.862 C 298.855 57.862,298.798 58.012,298.911 58.195 C 299.042 58.407,299.287 58.321,299.584 57.959 C 300.014 57.436,300.037 57.434,299.878 57.940 C 299.783 58.243,299.851 58.491,300.028 58.491 C 300.206 58.491,300.270 58.622,300.171 58.783 C 300.071 58.944,300.124 59.159,300.288 59.260 C 300.451 59.361,300.674 59.300,300.783 59.125 C 300.892 58.949,301.149 58.807,301.355 58.810 C 301.580 58.813,301.541 58.936,301.258 59.119 C 300.998 59.287,300.947 59.426,301.143 59.429 C 301.339 59.432,301.573 59.717,301.663 60.063 C 301.866 60.838,301.410 60.889,300.951 60.142 C 300.640 59.634,300.620 59.639,300.700 60.202 C 300.794 60.868,299.591 61.071,298.203 60.625 C 297.820 60.502,297.422 60.537,297.320 60.704 C 296.967 61.275,296.675 61.005,296.601 60.040 C 296.556 59.447,296.652 59.151,296.849 59.273 C 297.025 59.382,297.170 59.321,297.170 59.138 C 297.170 58.955,297.060 58.805,296.927 58.805 C 296.793 58.805,296.661 58.239,296.634 57.547 C 296.606 56.855,296.724 56.289,296.896 56.289 C 297.067 56.289,297.126 56.421,297.026 56.582 M297.757 59.402 C 297.994 59.552,298.293 59.844,298.421 60.052 C 298.590 60.325,298.709 60.287,298.852 59.916 C 298.961 59.633,298.919 59.482,298.760 59.580 C 298.601 59.678,298.382 59.615,298.274 59.439 C 298.165 59.263,297.908 59.122,297.702 59.124 C 297.453 59.128,297.472 59.221,297.757 59.402 M299.600 59.768 C 299.686 60.099,299.882 60.293,300.036 60.198 C 300.450 59.942,300.373 59.524,299.878 59.334 C 299.573 59.217,299.489 59.347,299.600 59.768 M60.905 68.475 C 60.770 68.703,61.198 70.126,61.400 70.126 C 61.455 70.126,61.500 69.843,61.500 69.497 C 61.500 69.151,61.381 68.868,61.235 68.868 C 61.089 68.868,61.057 68.726,61.164 68.553 C 61.270 68.381,61.287 68.239,61.201 68.239 C 61.114 68.239,60.981 68.345,60.905 68.475 M60.692 72.275 C 60.692 73.134,60.754 73.120,61.261 72.144 C 61.530 71.625,61.506 71.488,61.147 71.488 C 60.871 71.488,60.692 71.799,60.692 72.275 M313.522 75.633 C 313.522 75.722,313.345 76.080,313.129 76.429 C 312.811 76.942,312.816 77.113,313.156 77.324 C 313.475 77.523,313.424 77.625,312.940 77.752 C 312.070 77.979,311.852 77.230,312.592 76.560 C 312.923 76.261,313.117 75.894,313.024 75.744 C 312.932 75.594,313.006 75.472,313.189 75.472 C 313.372 75.472,313.522 75.544,313.522 75.633 M311.339 78.667 C 310.983 78.998,310.692 79.118,310.692 78.933 C 310.692 78.748,310.916 78.511,311.190 78.405 C 311.564 78.262,311.591 78.154,311.298 77.974 C 311.084 77.841,310.867 77.339,310.816 76.859 L 310.722 75.984 311.355 77.024 L 311.987 78.063 311.339 78.667 M315.039 78.153 C 314.983 78.321,314.807 78.416,314.648 78.363 C 314.489 78.310,314.544 78.490,314.771 78.763 C 315.025 79.069,315.438 79.189,315.846 79.075 C 316.327 78.941,316.390 78.972,316.076 79.190 C 315.838 79.354,315.740 79.647,315.859 79.839 C 316.298 80.550,315.535 80.158,314.648 79.218 C 313.905 78.431,313.816 78.193,314.177 77.965 C 314.713 77.626,315.181 77.728,315.039 78.153 M312.230 79.808 C 312.026 80.344,312.057 80.736,312.331 81.092 C 312.624 81.472,312.553 81.458,312.055 81.034 C 311.543 80.598,311.352 80.561,311.239 80.877 C 311.158 81.104,310.967 81.172,310.814 81.028 C 310.656 80.879,310.774 80.592,311.085 80.364 C 311.388 80.143,311.635 79.754,311.635 79.499 C 311.635 79.244,311.835 79.036,312.079 79.036 C 312.421 79.036,312.455 79.214,312.230 79.808 M314.620 79.871 C 314.735 80.056,314.593 80.097,314.270 79.973 C 313.854 79.814,313.774 79.888,313.929 80.291 C 314.062 80.636,313.972 80.818,313.669 80.818 C 313.415 80.818,313.208 80.676,313.208 80.503 C 313.208 80.330,313.031 80.193,312.814 80.199 C 312.598 80.205,312.755 80.488,313.164 80.828 C 313.572 81.168,313.802 81.447,313.676 81.447 C 313.549 81.447,313.639 81.686,313.877 81.979 C 314.247 82.435,314.243 82.471,313.852 82.235 C 313.601 82.084,312.858 81.992,312.201 82.030 C 311.544 82.069,311.006 81.977,311.006 81.826 C 311.006 81.300,311.423 81.140,311.855 81.499 C 312.472 82.011,313.147 81.345,312.636 80.729 C 312.369 80.408,312.373 80.206,312.649 79.930 C 313.099 79.480,314.356 79.442,314.620 79.871 M316.856 80.896 C 316.980 81.112,316.966 81.184,316.825 81.056 C 316.683 80.928,316.377 80.981,316.145 81.173 C 315.822 81.442,315.723 81.405,315.723 81.013 C 315.723 80.412,316.529 80.329,316.856 80.896 M53.511 84.591 C 53.459 85.563,53.913 86.386,54.225 85.883 C 54.343 85.691,54.299 85.535,54.127 85.535 C 53.956 85.535,53.756 85.145,53.684 84.670 C 53.559 83.844,53.551 83.840,53.511 84.591 M196.855 85.510 C 196.855 85.669,197.280 85.892,197.799 86.006 C 198.318 86.120,198.742 86.328,198.742 86.469 C 198.742 86.609,199.077 86.808,199.485 86.911 C 200.500 87.166,202.767 89.420,203.020 90.426 C 203.133 90.877,203.420 91.320,203.657 91.411 C 203.894 91.502,204.088 91.778,204.088 92.025 C 204.088 92.271,204.296 92.552,204.550 92.650 C 204.816 92.752,205.166 93.613,205.377 94.684 C 205.578 95.705,205.865 96.541,206.016 96.541 C 206.170 96.541,206.289 121.467,206.289 153.616 C 206.289 185.881,206.170 210.692,206.015 210.692 C 205.864 210.692,205.654 211.234,205.548 211.896 C 205.442 212.558,205.070 213.429,204.722 213.831 C 204.373 214.233,204.088 214.680,204.088 214.825 C 204.088 214.970,203.685 215.479,203.192 215.956 C 202.700 216.434,202.197 217.230,202.076 217.726 C 201.955 218.222,201.545 218.894,201.164 219.219 C 199.314 220.797,198.931 221.069,198.563 221.069 C 198.344 221.069,198.106 221.246,198.032 221.462 C 197.866 221.954,191.546 221.908,190.611 221.408 C 190.270 221.225,188.253 221.063,186.130 221.047 L 182.270 221.018 180.915 219.643 C 179.767 218.479,179.560 218.074,179.560 216.996 C 179.560 216.296,179.435 215.723,179.282 215.723 C 179.129 215.723,178.902 214.768,178.778 213.601 C 178.653 212.433,178.389 211.377,178.191 211.254 C 177.743 210.975,177.667 133.223,178.114 132.233 C 178.601 131.150,178.622 130.823,178.643 123.899 C 178.667 115.840,178.129 113.993,175.643 113.603 C 175.304 113.550,174.950 113.388,174.856 113.244 C 174.762 113.101,173.943 112.794,173.035 112.564 C 172.127 112.334,171.384 112.043,171.384 111.918 C 171.384 111.793,170.818 111.595,170.126 111.478 C 169.434 111.361,168.868 111.136,168.868 110.979 C 168.868 110.821,168.521 110.692,168.097 110.692 C 167.674 110.692,167.200 110.466,167.046 110.190 C 166.859 109.856,165.961 109.572,164.357 109.341 C 163.033 109.150,161.950 108.881,161.950 108.742 C 161.950 108.604,161.606 108.491,161.186 108.491 C 160.766 108.491,160.235 108.306,160.007 108.080 C 159.778 107.854,159.344 107.575,159.041 107.461 C 158.738 107.346,158.491 107.124,158.491 106.966 C 158.491 106.809,158.066 106.504,157.547 106.289 C 157.028 106.074,156.604 105.770,156.604 105.612 C 156.604 105.455,156.367 105.235,156.077 105.124 C 155.260 104.811,154.438 103.869,154.219 102.995 C 154.110 102.559,153.923 102.201,153.805 102.201 C 153.555 102.201,152.830 99.645,152.830 98.764 C 152.830 98.435,152.680 98.116,152.497 98.054 C 152.065 97.911,152.005 95.915,152.425 95.646 C 152.601 95.533,152.855 95.086,152.990 94.654 C 153.278 93.729,154.398 92.466,154.939 92.458 C 155.147 92.455,155.410 91.958,155.524 91.352 C 155.637 90.747,155.856 90.252,156.010 90.252 C 156.164 90.252,156.289 90.089,156.289 89.890 C 156.289 89.296,158.419 87.413,159.515 87.038 C 160.076 86.846,160.633 86.540,160.753 86.357 C 160.906 86.125,161.285 86.132,162.011 86.380 C 162.583 86.575,163.758 86.830,164.623 86.945 C 165.487 87.061,166.544 87.381,166.971 87.655 C 167.754 88.159,183.454 88.386,186.541 87.938 C 188.406 87.667,190.350 87.093,191.156 86.576 C 191.567 86.312,192.739 86.021,193.760 85.928 C 194.780 85.836,195.690 85.639,195.782 85.490 C 196.006 85.129,196.855 85.144,196.855 85.510 M325.812 103.887 C 325.884 103.949,326.368 104.095,326.887 104.211 C 327.576 104.365,327.703 104.336,327.358 104.102 C 326.934 103.815,325.497 103.614,325.812 103.887 M330.972 104.408 C 330.863 104.583,330.607 104.627,330.403 104.505 C 330.143 104.349,330.149 104.427,330.422 104.764 C 330.636 105.029,330.707 105.362,330.579 105.504 C 330.451 105.645,330.523 105.659,330.739 105.535 C 330.968 105.403,331.134 105.481,331.137 105.720 C 331.140 106.024,331.219 106.010,331.435 105.669 C 331.623 105.371,331.607 105.131,331.390 104.996 C 331.204 104.881,331.149 104.630,331.268 104.438 C 331.386 104.245,331.413 104.088,331.326 104.088 C 331.240 104.088,331.080 104.232,330.972 104.408 M331.834 111.635 C 331.834 112.241,331.899 112.488,331.978 112.186 C 332.057 111.883,332.057 111.388,331.978 111.085 C 331.899 110.782,331.834 111.030,331.834 111.635 M331.538 114.151 C 331.628 114.498,331.603 114.719,331.481 114.644 C 331.359 114.569,331.054 114.637,330.803 114.796 C 330.460 115.012,330.562 115.086,331.211 115.090 C 331.925 115.094,332.075 114.957,332.075 114.308 C 332.075 113.876,331.917 113.522,331.724 113.522 C 331.528 113.522,331.446 113.799,331.538 114.151 M39.358 133.789 C 39.330 135.164,39.424 136.155,39.565 135.991 C 39.707 135.826,39.729 134.701,39.615 133.491 L 39.407 131.289 39.358 133.789 M39.313 142.060 C 39.327 142.749,39.928 143.207,39.932 142.531 C 39.935 142.142,39.796 141.824,39.623 141.824 C 39.450 141.824,39.310 141.930,39.313 142.060 M338.370 152.280 C 338.372 152.669,338.512 153.200,338.679 153.459 C 338.906 153.810,338.985 153.629,338.989 152.752 C 338.992 152.103,338.852 151.572,338.679 151.572 C 338.506 151.572,338.367 151.891,338.370 152.280 M39.313 152.594 C 39.310 153.070,39.450 153.459,39.623 153.459 C 40.020 153.459,40.020 152.817,39.623 152.201 C 39.385 151.834,39.317 151.920,39.313 152.594 M39.308 167.034 C 39.308 168.273,39.359 169.228,39.422 169.156 C 39.711 168.822,39.886 164.780,39.611 164.780 C 39.444 164.780,39.308 165.794,39.308 167.034 M40.635 181.013 C 40.577 181.716,40.637 181.779,41.042 181.443 C 41.403 181.143,41.432 180.946,41.160 180.619 C 40.699 180.063,40.715 180.052,40.635 181.013 M46.585 198.899 C 46.585 199.245,46.707 199.811,46.855 200.157 L 47.126 200.786 47.126 200.157 C 47.126 199.811,47.004 199.245,46.855 198.899 L 46.585 198.270 46.585 198.899 M47.030 201.328 C 46.230 202.471,46.920 202.936,47.881 201.900 C 48.198 201.558,48.166 201.516,47.713 201.676 C 47.240 201.843,47.206 201.779,47.488 201.251 C 47.938 200.411,47.637 200.461,47.030 201.328 M48.642 202.079 C 48.782 202.445,48.731 202.546,48.482 202.392 C 48.280 202.267,47.825 202.368,47.471 202.616 C 46.947 202.982,46.914 203.100,47.293 203.245 C 47.572 203.352,47.816 203.210,47.900 202.891 C 48.000 202.511,48.051 202.562,48.077 203.066 C 48.132 204.144,48.956 203.935,48.988 202.836 C 49.002 202.320,48.884 201.817,48.725 201.719 C 48.564 201.619,48.527 201.780,48.642 202.079 M49.510 203.312 C 49.846 203.566,50.412 203.773,50.768 203.772 C 51.309 203.770,51.268 203.693,50.514 203.300 C 49.364 202.700,48.711 202.708,49.510 203.312 M54.216 212.940 C 53.833 213.559,53.712 215.409,54.055 215.409 C 54.281 215.409,54.290 215.665,54.081 216.213 C 53.855 216.808,53.871 216.958,54.142 216.790 C 54.394 216.635,54.442 216.740,54.294 217.125 C 54.122 217.574,54.205 217.653,54.713 217.520 C 55.061 217.429,55.267 217.483,55.171 217.639 C 54.938 218.015,55.246 218.000,55.996 217.599 C 56.415 217.375,56.604 217.375,56.604 217.599 C 56.604 217.787,57.400 217.925,58.491 217.925 C 59.958 217.925,60.377 217.820,60.377 217.453 C 60.377 217.193,60.180 216.981,59.939 216.981 C 59.698 216.981,59.420 216.769,59.320 216.509 C 59.221 216.250,58.976 216.038,58.776 216.038 C 58.518 216.038,58.528 216.175,58.811 216.517 C 59.030 216.781,59.118 217.087,59.007 217.198 C 58.896 217.309,58.795 217.200,58.783 216.955 C 58.770 216.692,58.650 216.767,58.491 217.138 C 58.251 217.696,58.218 217.669,58.198 216.903 C 58.186 216.427,58.070 216.054,57.940 216.075 C 57.305 216.175,56.902 216.004,57.083 215.711 C 57.208 215.509,57.004 215.431,56.552 215.508 C 56.148 215.576,55.994 215.571,56.211 215.497 C 57.074 215.202,56.590 214.576,55.582 214.682 C 54.680 214.777,54.643 214.753,55.267 214.480 C 55.656 214.310,55.964 213.990,55.950 213.768 C 55.932 213.475,55.883 213.468,55.772 213.740 C 55.688 213.947,55.413 214.036,55.160 213.939 C 54.829 213.812,54.793 213.652,55.031 213.365 C 55.271 213.077,55.232 212.917,54.892 212.786 C 54.634 212.687,54.330 212.756,54.216 212.940 M323.795 216.876 C 323.473 217.198,323.546 217.925,323.899 217.925 C 324.072 217.925,324.214 217.724,324.214 217.479 C 324.214 217.234,324.391 216.962,324.607 216.875 C 324.863 216.771,324.827 216.708,324.502 216.691 C 324.228 216.678,323.910 216.761,323.795 216.876 M61.363 226.382 C 61.078 226.563,60.974 227.083,61.054 227.924 C 61.121 228.621,61.066 229.125,60.933 229.043 C 60.801 228.961,60.692 229.185,60.692 229.541 C 60.692 229.897,60.833 230.189,61.006 230.189 C 61.179 230.189,61.321 230.074,61.321 229.934 C 61.321 229.793,61.634 229.342,62.018 228.930 C 62.603 228.302,62.622 228.218,62.140 228.403 C 61.702 228.571,61.610 228.506,61.754 228.132 C 61.862 227.849,61.810 227.722,61.632 227.832 C 61.461 227.938,61.321 227.804,61.321 227.534 C 61.321 227.265,61.439 227.044,61.583 227.044 C 61.727 227.044,61.845 226.832,61.845 226.572 C 61.845 226.313,61.833 226.103,61.819 226.105 C 61.804 226.108,61.599 226.233,61.363 226.382 M61.910 229.403 C 61.889 229.489,61.853 229.706,61.832 229.886 C 61.810 230.065,61.651 230.313,61.478 230.436 C 61.305 230.559,61.120 230.861,61.067 231.107 C 60.990 231.466,61.061 231.478,61.436 231.167 C 61.827 230.842,61.872 230.891,61.718 231.478 C 61.585 231.988,61.643 232.108,61.935 231.927 C 62.168 231.783,62.449 231.861,62.609 232.114 C 62.824 232.454,62.884 232.459,62.888 232.136 C 62.891 231.882,63.044 231.821,63.286 231.976 C 63.854 232.340,66.981 232.291,66.980 231.918 C 66.980 231.745,66.488 231.587,65.887 231.567 C 65.286 231.546,64.870 231.652,64.963 231.802 C 65.325 232.388,64.475 232.038,64.045 231.424 C 63.716 230.955,63.546 230.889,63.435 231.189 C 63.322 231.494,63.086 231.416,62.546 230.896 C 62.141 230.507,61.959 230.189,62.142 230.189 C 62.324 230.189,62.474 229.976,62.474 229.717 C 62.474 229.289,62.004 229.027,61.910 229.403 M69.921 241.903 C 70.023 242.205,69.969 242.453,69.801 242.453 C 69.197 242.453,69.518 243.155,70.603 244.209 C 71.712 245.286,72.327 245.557,72.327 244.969 C 72.327 244.796,72.141 244.654,71.915 244.654 C 71.393 244.654,70.126 243.490,70.126 243.011 C 70.126 242.812,70.549 243.055,71.066 243.550 C 71.583 244.046,72.099 244.359,72.212 244.245 C 72.325 244.132,72.178 243.948,71.885 243.836 C 71.592 243.723,70.989 243.119,70.544 242.492 C 70.100 241.865,69.820 241.600,69.921 241.903 M74.528 245.912 C 74.147 246.158,74.192 246.218,74.764 246.222 C 75.153 246.224,75.472 246.085,75.472 245.912 C 75.472 245.518,75.138 245.518,74.528 245.912 M75.447 251.933 C 75.117 252.549,75.150 252.591,75.829 252.420 C 76.514 252.247,76.527 252.266,76.003 252.658 C 75.672 252.906,75.565 253.165,75.748 253.278 C 75.921 253.385,76.208 253.222,76.386 252.915 C 76.678 252.414,76.711 252.429,76.720 253.066 C 76.725 253.455,76.877 253.774,77.058 253.774 C 77.521 253.774,77.294 252.745,76.733 252.308 C 76.476 252.107,76.133 252.024,75.972 252.123 C 75.810 252.224,75.769 252.071,75.880 251.781 C 76.168 251.032,75.874 251.135,75.447 251.933 M84.486 259.958 C 84.173 260.271,84.233 261.006,84.572 261.006 C 84.734 261.006,84.845 260.723,84.819 260.377 C 84.766 259.667,84.771 259.673,84.486 259.958 M86.164 260.692 C 86.164 260.865,86.376 261.006,86.635 261.006 C 86.895 261.006,87.107 260.865,87.107 260.692 C 87.107 260.519,86.895 260.377,86.635 260.377 C 86.376 260.377,86.164 260.519,86.164 260.692 M89.623 266.018 C 89.623 266.180,89.896 266.293,90.230 266.267 C 90.564 266.242,90.768 266.110,90.683 265.972 C 90.467 265.624,89.623 265.660,89.623 266.018 M273.187 272.829 C 273.084 272.933,273.067 273.194,273.150 273.410 C 273.328 273.874,271.497 274.022,271.216 273.567 C 271.117 273.408,271.256 273.362,271.525 273.465 C 271.793 273.568,272.013 273.496,272.013 273.304 C 272.013 272.774,271.201 272.889,270.715 273.488 C 270.477 273.781,270.445 273.923,270.643 273.804 C 270.841 273.686,271.082 273.793,271.177 274.042 C 271.294 274.345,271.200 274.438,270.896 274.321 C 270.615 274.213,270.440 274.340,270.440 274.652 C 270.440 275.068,270.829 275.157,272.641 275.157 L 274.842 275.157 274.764 274.057 C 274.721 273.452,274.563 272.957,274.413 272.957 C 274.263 272.956,274.210 273.223,274.296 273.550 C 274.576 274.620,274.008 274.978,273.652 273.956 C 273.470 273.436,273.405 272.927,273.506 272.825 C 273.607 272.724,273.619 272.642,273.532 272.642 C 273.446 272.642,273.291 272.726,273.187 272.829 M125.681 287.631 C 125.308 288.005,125.459 288.679,125.917 288.679 C 126.162 288.679,126.434 288.856,126.521 289.072 C 126.633 289.349,126.687 289.356,126.705 289.095 C 126.718 288.891,126.524 288.519,126.273 288.267 C 126.022 288.016,125.904 287.723,126.011 287.616 C 126.118 287.509,126.135 287.421,126.048 287.421 C 125.962 287.421,125.797 287.516,125.681 287.631 " stroke="none" fill="#ec7775" fill-rule="evenodd"></path></g></svg>